<svg xmlns="http://www.w3.org/2000/svg" viewBox="0 0 3872.97 3872.97"><defs><style>.cls-1{fill:#3c3633;}.cls-2{fill:#fff;fill-rule:evenodd;}</style></defs><g id="Master_Layer_3" data-name="Master Layer 3"><rect class="cls-1" width="3872.97" height="3872.97" rx="1936.49"/></g><g id="Layer_1" data-name="Layer 1"><path class="cls-2" d="M2377.74,1666.86c-5.76-67.91-.27-147.11-6.61-223.09-3.3-38-7.17-76.56-11.57-114-158.35,57.27-339.53,181.68-518.88,32.5-22.34,119.6-2.08,215.44-8.25,302,.76,158.79,102.43,273.58,242.35,273.58h66.1c141.56,0,236.86-101.9,236.86-253.38v-17.62Zm633.43,1361.63H1204.48a49.36,49.36,0,0,1-49.57-49.58V2560.28c0-258.33,252.27-468.18,561.83-468.18h137L1897,1985.59c-94.61-60.72-157.23-170.3-163.28-302.14-136.43-108.18-108.53-420.08-75.94-566.32,24.23-115.12,71-170.76,178.45-211.52,231.91-93,649.89-67.88,727.64,225.85,42.38,160.15,29,410.35-75.46,534.85l-11.57,18.17c0,129.3-56.79,245.06-162.18,307l45.43,100.66H2498.9c309.57,0,561.85,209.85,561.85,468.18v418.63a49.37,49.37,0,0,1-49.58,49.58ZM1858.88,2191.23H1716.74c-255,0-462.68,165.81-462.68,369.05v369h159.73V2626.4c0-65.36,99.15-65.36,99.15,0v302.93h561.84v-356.5l-215.9-381.6Zm315,738.1H2702.7V2626.4c0-65.36,99.16-65.36,99.16,0v302.93H2961.6v-369c0-203.24-207.66-369.05-462.7-369.05H2359.38l-185.46,380.93v357.17Zm-186.19-903.64-45.27,111.39,179.14,316.34,152-312.19-51.17-113.32c-59.33,13.67-176.39,13.4-234.69-2.22ZM984.15,3017.46H554.51c-66.09,0-126.67-60.58-126.67-126.68v-314c0-63,76.69-49.58,132.19-49.58,0-162.58-14.69-170.76,94.57-170.76L370,2054.62a49.64,49.64,0,0,1-1.66-66.09c33.05-38.55,67.75-81,95.85-115.12-53.42,2.54-109.2,17-122.29-33L242.76,1460.3c-11-42.47,35.21-76.9,73.26-55.08,355.78,204,620.09,550,522.07,951.26,158.5,0,140.56-12.35,140.56,170.76,55.5,0,132.2-13.4,132.2,49.58v314c0,68.86-57.84,126.68-126.7,126.68ZM527,2626.4v264.38c0,11,16.53,27.55,27.54,27.55H984.15c16.53,0,27.54-16.54,27.54-27.55V2626.4Zm132.2-100.25H879.5v-70.51H659.17v70.51ZM472.44,2018.83,746.2,2309.12c56.53-291.48-92.92-555.25-375.66-751.87l57.28,218.68c125-6.76,183.1-5.16,182.32,51.77-.55,19.83-.55,28.09-137.7,191.13Zm1927.33-802.54c-25.3,0-129.88,43.32-160.86,56.73-141.56,61.14-264.38,114-384.47-36.91-24.09-30.2-71.63-22.42-84.83,13.22-23.67,63.35-33.6,122.83-36.89,182.33-8.27-94.76,1.1-207.12,21.47-291.4a2,2,0,0,0,.56-1.64C1774,1049.38,1801,1025.7,1872.62,998.7c.56-.53,1.66-.53,2.22-1.09,116.21-50.13,318.91-62.24,456.62,4.4,72.17,35.26,118.43,87.58,136.6,155.33,24.23,93.1,24.79,208.22,4.4,304.06-8.27-66.67-9.46-131-23.67-204.35C2444.35,1234.11,2424.29,1216.29,2399.77,1216.29Z" transform="translate(-0.01 -6.53)"/></g></svg>