<svg id="Layer_1" data-name="Layer 1" xmlns="http://www.w3.org/2000/svg" viewBox="0 0 1166.98 627.17"><defs><style>.cls-1{fill:#fff;}.cls-2{fill:#e0ccbe;}.cls-3{fill:#3c3633;}</style></defs><path class="cls-1" d="M4128.69,2244.32c5.24-.48,10.93.13,16.1.13h425.79l-22.75-71A400.6,400.6,0,0,1,4429.51,2186c-37.34-1.73-73.56-9.34-109.26-20.15-34.34-10.4-69.06-22.59-105.3-23.36-23.45-.5-47.7-1-70.28,6.27-25.9,8.39-46.46,27.12-64.2,47.16v34.66c12.37.47,24.89,2.34,36.3,7.08A48.35,48.35,0,0,1,4128.69,2244.32Z" transform="translate(-3490.37 -1734.01)"/><path class="cls-2" d="M3707.67,2282.13q74.76-1.2,149.52-1.68c42.24-.21,84.5-.28,126.73.82,7.75.2,15.49.44,23.23.79,5.86.26,16.34-.92,21,2.87,4.84,3.94,8.43,7.23,14.79,10,14.89,6.4,32.44,7,48.23,4.27a103.18,103.18,0,0,0,35.16-12.62c2.17-1.29,4.07-3,6.59-3.44,5.17-1,11.35-.12,16.61-.11h15.34q56.35.08,112.71.57,79.79.72,159.53,2.48c31.75.69,63.5,1.62,95.26,2,19.78.22,39.59.22,59.33-1.25q6.27-.47,12.53-1.14,3.12-.33,6.24-.72l3.21-.42.21,0,1.53-.21c6.64-1,13.25-2.09,19.86-3.3-1-3.64-1.73-7.42-2.68-10.86l-9.81-35.22-30-107.65-34.68-124.56q-14.34-51.48-28.67-103l-10.59-38h-35.83l16.5,65q13.84,54.58,27.7,109.18l22.89,90.27,9.54,37.59a6.7,6.7,0,0,1,0,3.33l26.34,82.23c1.32,4.13-2.23,8.38-6.39,8.38H4137.59c-5.37,0-11.8,1.15-16.24-2.23-.32-.25-.6-.56-.91-.82l0,0,0,0c-1.29-.89-2.6-1.73-4-2.49a59.2,59.2,0,0,0-14.67-5.42,117.32,117.32,0,0,0-27-3.26,7.39,7.39,0,0,1-1.41,0,119.1,119.1,0,0,0-26,2.92,62.42,62.42,0,0,0-15.32,5.38,51,51,0,0,0-4.41,2.7l-.19.13s0,0-.06,0l-.78.69c-2.32,2-4.35,2.31-7.11,2.36-8,.13-16.08,0-24.11,0h-427.2c-4.16,0-7.71-4.25-6.39-8.38q13.71-42.78,27.41-85.56c.06-.21.14-.43.19-.65,3.66-15.48,8.93-30.74,13.36-46q13.72-47.24,27.44-94.49l31.56-108.7q7.59-26.12,15.17-52.23h-27c-1.28,4.43-3.2,8.89-4.56,13.13q-5.8,18-11.59,36L3598.55,2020q-20.39,63.37-40.76,126.75l-33.57,104.35-11.28,35.09q32-.81,64.09-1.51Q3642.34,2283.21,3707.67,2282.13Z" transform="translate(-3490.37 -1734.01)"/><path class="cls-1" d="M3639,2039.37l-26.22,90.3q-4.52,15.55-9,31.1a388.81,388.81,0,0,0,120.73,11.69c37.93-2.37,74.12-11.53,110.31-22.65,34.46-10.59,68.6-20.21,104.91-20.62,23.65-.26,48-.06,70.49,8.09,22.19,8,40.75,22.57,57.05,39.3V1758.24c-25.2-8.45-51.59-11.5-78.17-10.63-50.81,1.67-100.19,16-149.1,28.58-41.8,10.8-86.07,22.68-129.66,18.69-1,3.39-2.28,6.79-3.21,10l-9.09,31.29-27.44,94.49Z" transform="translate(-3490.37 -1734.01)"/><path class="cls-1" d="M3994.55,2146.42c-10.88-2.63-22-3.56-33.17-3.89-14.16-.42-28.56-.53-42.66.83-36.09,3.46-70.45,16.7-105.07,26.62-70,20-143.33,21.59-213.78,3.49q-11.32,35.34-22.64,70.68c3.15.09,6.31.3,9.3.3h432.35a47.73,47.73,0,0,1,12.06-6.75c11.37-4.72,23.84-6.6,36.16-7.07-.3-11.59-.18-23.22,0-34.84C4047.26,2173.47,4024.21,2153.57,3994.55,2146.42Z" transform="translate(-3490.37 -1734.01)"/><path class="cls-2" d="M4638.17,2293.87a439.56,439.56,0,0,1-57.19,6.79c-23.94,1.17-47.95.69-71.91.22-41.55-.82-83.1-1.91-124.66-2.65q-107.07-1.92-214.16-2c-11.39,0-22.79.09-34.18,0-.71,0,2-1.18.55-.55a15.06,15.06,0,0,0-1.28.86c-1.46.87-2.89,1.79-4.39,2.62a117.89,117.89,0,0,1-42.52,13.68c-17.54,2.23-35.91.76-52.17-6.51-5.49-2.46-11.39-5.85-15.75-10.29-1.8-.11-3.6-.24-5.4-.34-32.64-1.79-65.39-1.93-98.06-2.06-44.14-.17-88.28.16-132.42.67q-67.26.76-134.52,2.09-52.18,1-104.36,2.21-18.15.42-36.3.89-2.44,16.16-4.91,32.32,32.53-.81,65.08-1.51,64.66-1.41,129.32-2.47,74.47-1.22,149-1.73c43-.24,85.95-.34,128.92.61,14.56.33,29.13.74,43.67,1.68,3.51.23,6,.85,8.69,3.12a67.93,67.93,0,0,0,9.15,6.57,69.7,69.7,0,0,0,44.09,9.64c14.79-1.72,29.23-7.43,42.14-14.69,2.64-1.49,5.32-3.75,8.34-4.32,5.2-1,11.49-.12,16.79-.12l15.51,0q56.19.07,112.36.56,80.81.72,161.6,2.48c32.42.7,64.84,1.62,97.27,2,20.4.23,40.84.22,61.2-1.24q6.53-.47,13-1.15,3.12-.33,6.22-.7l3.34-.42.57-.07,1.25-.18c7.14-1,14.24-2.22,21.33-3.52q-2.48-16.26-4.94-32.52Z" transform="translate(-3490.37 -1734.01)"/><path class="cls-1" d="M4220,2129.46c36.76,1.77,71.81,14.06,106.75,24.56,36.31,10.9,73.16,18.14,111.15,19.07A388.56,388.56,0,0,0,4545,2160.52c-3.73-13.19-6.6-26.73-10-40q-11.91-47-23.83-94l-27.7-109.18q-11.44-45.14-22.9-90.27-4.08-16.14-8.18-32.27c-23.62,2.14-47.51-.61-70.78-4.67-51.31-8.94-101.19-24.61-152.35-34.32-48.91-9.29-100.62-13.67-148.54,2.29.2,5-.3,10.22-.3,15v403.33c18.41-18.83,39.74-34.84,65.52-41.93C4169.67,2128.07,4195.62,2128.28,4220,2129.46Z" transform="translate(-3490.37 -1734.01)"/><path class="cls-3" d="M4650.51,2285.63a5.77,5.77,0,0,0-.2-1.32,6.9,6.9,0,0,0-.44-1.57q-5.74-20.65-11.5-41.31-14.34-51.48-28.67-103L4575,2013.91l-30-107.65c-4.83-17.35-9-35.07-14.54-52.2-.08-.26-.14-.52-.21-.77a6.75,6.75,0,0,0-6.39-4.87h-44.22q-2-7.85-4-15.69c-3.88-15.28-7-31-11.68-46.06-.07-.22-.12-.45-.17-.67-.65-2.53-3.59-5.2-6.39-4.86-47.47,5.76-96-7.85-141.71-19.07-51.86-12.74-104.41-26.57-158.11-27.78-28.35-.64-57,2.71-83.78,12.22-98-34.85-199.39,12.38-295.64,30.42-24,4.5-48.67,7.16-73.06,4.21-2.87-.35-5.65,2.3-6.39,4.86l-10.92,37.61q-3.6,12.41-7.21,24.81h-36a6.81,6.81,0,0,0-6.39,4.87q-7,21.84-14.05,43.69-16.77,52.17-33.56,104.35-20.38,63.38-40.76,126.75l-35.1,109.14c-5.57,17.32-12.2,34.66-16.85,52.28a6.7,6.7,0,0,0-.53,1.74,5.5,5.5,0,0,0-.25,1.69q-3.34,22-6.68,43.93c-.62,4.07,1.67,8.5,6.38,8.38q21.3-.55,42.58-1,53.24-1.22,106.48-2.21,68.22-1.27,136.45-2.09c44.67-.51,89.34-.84,134-.66,32.91.13,65.9.25,98.77,2.06,1.86.1,3.71.23,5.56.35,19.53,17.81,48.49,23,73.68,17.35a135.94,135.94,0,0,0,40.16-16.45c.52-.32,1.18-.87,1.82-1.26-.33.61,6.07.53,6.58.53h9q16.86,0,33.71.06,103.64.27,207.27,2.08c40.76.74,81.51,1.82,122.26,2.57,24.14.45,48.34.88,72.46-.31a445.61,445.61,0,0,0,57.59-6.77c2.46-.45,4.92-.92,7.38-1.39,3.8-.74,5.12-4.84,4.62-8.15Q4653.88,2307.78,4650.51,2285.63Zm-570-212.22V1773.19c0-4.83.5-10.07.3-15,47.92-16,99.63-11.58,148.54-2.29,51.16,9.71,101,25.38,152.35,34.32,23.27,4.06,47.16,6.81,70.78,4.67q4.1,16.14,8.18,32.27,11.46,45.14,22.9,90.27l27.7,109.18q11.91,47,23.83,94c3.36,13.25,6.23,26.79,10,40a388.56,388.56,0,0,1-107.13,12.57c-38-.93-74.84-8.17-111.15-19.07-34.94-10.5-70-22.79-106.75-24.56-24.36-1.18-50.31-1.39-74,5.13-25.78,7.09-47.11,23.1-65.52,41.93Zm0,122.55c17.74-20,38.3-38.77,64.2-47.16,22.58-7.3,46.83-6.77,70.28-6.27,36.24.77,71,13,105.3,23.36,35.7,10.81,71.92,18.42,109.26,20.15a400.6,400.6,0,0,0,118.32-12.58l22.75,71H4144.79c-5.17,0-10.86-.61-16.1-.13a48.35,48.35,0,0,0-11.92-6.62c-11.41-4.74-23.93-6.61-36.3-7.08ZM3698,1836.18l9.09-31.29c.93-3.22,2.24-6.62,3.21-10,43.59,4,87.86-7.89,129.66-18.69,48.91-12.63,98.29-26.91,149.1-28.58,26.58-.87,53,2.18,78.17,10.63v418.34c-16.3-16.73-34.86-31.27-57.05-39.3-22.51-8.15-46.84-8.35-70.49-8.09-36.31.41-70.45,10-104.91,20.62-36.19,11.12-72.38,20.28-110.31,22.65a388.81,388.81,0,0,1-120.73-11.69q4.53-15.54,9-31.1l26.22-90.3,31.56-108.7Zm369.1,394.45c-12.32.47-24.79,2.35-36.16,7.07a47.73,47.73,0,0,0-12.06,6.75H3586.53c-3,0-6.15-.21-9.3-.3q11.33-35.34,22.64-70.68c70.45,18.1,143.83,16.53,213.78-3.49,34.62-9.92,69-23.16,105.07-26.62,14.1-1.36,28.5-1.25,42.66-.83,11.16.33,22.29,1.26,33.17,3.89,29.66,7.15,52.71,27,72.53,49.37C4066.92,2207.41,4066.8,2219,4067.1,2230.63Zm-542.88,20.44,33.57-104.35q20.37-63.37,40.76-126.75l35.1-109.14q5.79-18,11.59-36c1.36-4.24,3.28-8.7,4.56-13.13h27q-7.59,26.11-15.17,52.23l-31.56,108.7q-13.73,47.25-27.44,94.49c-4.43,15.27-9.7,30.53-13.36,46-.05.22-.13.44-.19.65q-13.71,42.78-27.41,85.56c-1.32,4.13,2.23,8.38,6.39,8.38h427.2c8,0,16.08.13,24.11,0,2.76-.05,4.79-.35,7.11-2.36l.78-.69s.05,0,.06,0l.19-.13a51,51,0,0,1,4.41-2.7,62.42,62.42,0,0,1,15.32-5.38,119.1,119.1,0,0,1,26-2.92,7.39,7.39,0,0,0,1.41,0,117.32,117.32,0,0,1,27,3.26,59.2,59.2,0,0,1,14.67,5.42c1.37.76,2.68,1.6,4,2.49l0,0,0,0c.31.26.59.57.91.82,4.44,3.38,10.87,2.23,16.24,2.23h442.05c4.16,0,7.71-4.25,6.39-8.38l-26.34-82.23a6.7,6.7,0,0,0,0-3.33l-9.54-37.59-22.89-90.27q-13.86-54.59-27.7-109.18l-16.5-65h35.83l10.59,38q14.32,51.49,28.67,103l34.68,124.56,30,107.65,9.81,35.22c.95,3.44,1.7,7.22,2.68,10.86-6.61,1.21-13.22,2.34-19.86,3.3l-1.53.21-.21,0-3.21.42q-3.12.39-6.24.72-6.25.68-12.53,1.14c-19.74,1.47-39.55,1.47-59.33,1.25-31.76-.35-63.51-1.28-95.26-2q-79.76-1.76-159.53-2.48-56.35-.51-112.71-.57h-15.34c-5.26,0-11.44-.87-16.61.11-2.52.48-4.42,2.15-6.59,3.44a103.18,103.18,0,0,1-35.16,12.62c-15.79,2.71-33.34,2.13-48.23-4.27-6.36-2.72-10-6-14.79-10-4.66-3.79-15.14-2.61-21-2.87-7.74-.35-15.48-.59-23.23-.79-42.23-1.1-84.49-1-126.73-.82q-74.76.36-149.52,1.68-65.33,1.07-130.64,2.52-32,.7-64.09,1.51ZM4621.08,2330h0Zm1-.14-1.25.18-.57.07-3.34.42q-3.1.38-6.22.7-6.51.69-13,1.15c-20.36,1.46-40.8,1.47-61.2,1.24-32.43-.35-64.85-1.27-97.27-2q-80.79-1.72-161.6-2.48-56.17-.49-112.36-.56l-15.51,0c-5.3,0-11.59-.87-16.79.12-3,.57-5.7,2.83-8.34,4.32-12.91,7.26-27.35,13-42.14,14.69a69.7,69.7,0,0,1-44.09-9.64,67.93,67.93,0,0,1-9.15-6.57c-2.69-2.27-5.18-2.89-8.69-3.12-14.54-.94-29.11-1.35-43.67-1.68-43-.95-86-.85-128.92-.61q-74.49.42-149,1.73-64.67,1.05-129.32,2.47-32.53.7-65.08,1.51,2.46-16.16,4.91-32.32,18.15-.47,36.3-.89,52.17-1.21,104.36-2.21,67.26-1.28,134.52-2.09c44.14-.51,88.28-.84,132.42-.67,32.67.13,65.42.27,98.06,2.06,1.8.1,3.6.23,5.4.34,4.36,4.44,10.26,7.83,15.75,10.29,16.26,7.27,34.63,8.74,52.17,6.51a117.89,117.89,0,0,0,42.52-13.68c1.5-.83,2.93-1.75,4.39-2.62a15.06,15.06,0,0,1,1.28-.86c1.48-.63-1.26.54-.55.55,11.39.11,22.79,0,34.18,0q107.09.18,214.16,2c41.56.74,83.11,1.83,124.66,2.65,24,.47,48,.95,71.91-.22a439.56,439.56,0,0,0,57.19-6.79l.28,0q2.48,16.26,4.94,32.52C4636.3,2327.64,4629.2,2328.86,4622.06,2329.86Z" transform="translate(-3490.37 -1734.01)"/></svg>