<svg id="Layer_1" data-name="Layer 1" xmlns="http://www.w3.org/2000/svg" viewBox="0 0 1958.62 1251.89"><defs><style>.cls-1{fill:#e0ccbe;fill-rule:evenodd;}</style></defs><path class="cls-1" d="M688.49,1668.16c226.48-47.8,454.4,11.85,590.7,144C1164.22,1664,971.1,1594,731.1,1617.89l-42.61,50.27Zm1457.5,0c-226.49-47.8-454.4,11.85-590.7,144,115-148.1,308.08-218.17,548.09-194.24q42.6,50.28,42.61,50.27Zm113.13,100.51c-274.21-87.66-554.34-33.74-732.54,111.35,122.25-159.33,388-229.65,692.49-175.26l40,63.91Zm-1683.76,0C849.57,1681,1129.7,1734.93,1307.9,1880c-122.25-159.33-388-229.65-692.49-175.26l-40,63.91Z" transform="translate(-437.93 -791.28)"/><path class="cls-1" d="M1497.52,1934.07c235.78-174.35,584.82-182.88,824.93-90.47,53.08,97.64,61.29,113.29,74.1,139.48-241.88-205.22-714.78-135.42-882.13-20.28-9.09,66.66-42.59,81.62-97.18,80.29-54.6,1.33-88.09-13.63-97.18-80.29-167.36-115.14-640.25-184.94-882.13,20.28,12.81-26.19,21-41.84,74.1-139.48,240.11-92.41,589.15-83.88,824.93,90.47,7.62,25.24,26.62,42.53,49.82,51.87,15,6,46,6,60.91,0,23.21-9.34,42.21-26.63,49.83-51.87Z" transform="translate(-437.93 -791.28)"/><path class="cls-1" d="M1413,1333.3a61.49,61.49,0,1,1-61.49,61.49A61.49,61.49,0,0,1,1413,1333.3Zm-10.59,615.77q3.51-6.09,6.86-12.08-15.32-27.87-26.91-53.75-6-13.31-11-26c-9.31,14-19.88,28.49-31.85,43.64,8.85,21.27,26.32,36.11,47.19,44.52a64.78,64.78,0,0,0,15.67,3.64Zm55.25-117.64c106.33-310.53-243.11-340.69-233.42-547.77-36.3,209.93,251.19,262.69,197.6,468.16a282.93,282.93,0,0,0,20.47,51.93q6.75,13.41,15.35,27.68Zm-28.16,117.91c-95.89-165.11-88.39-267.58-44.18-344.81q5.06,7.77,9.55,15.92a192.85,192.85,0,0,1,13.58,30.45l1.43,4.22c-18,62.15-2.73,138.85,84,248-9.11,20.12-26.09,34.24-46.26,42.36a69,69,0,0,1-18.15,3.91Zm-6.07-397.56c77-88.71,189.65-149.3,184.09-268.12,24,138.81-93.55,208.89-160.5,299.83q-3.75-5.68-7.72-11.22Q1431.77,1561.73,1423.47,1551.78Z" transform="translate(-437.93 -791.28)"/><path class="cls-1" d="M1676.51,1489.54q-32.88-39.33-51.15-49c-.11,44.43,20.08,65.74,70.49,77.49-11.4-12.23,5.61-74.91-62-81.88q34.7,33.3,42.7,53.37Z" transform="translate(-437.93 -791.28)"/><path class="cls-1" d="M1605.78,1595.56q-37.56-66.61-61.77-85.72c-12.19,65.15,11.65,101.9,82.43,132.79-13.42-21,28.53-108.38-68.84-136.94Q1599.48,1563.94,1605.78,1595.56Z" transform="translate(-437.93 -791.28)"/><path class="cls-1" d="M1220.3,1595.56q37.58-66.61,61.77-85.72c12.19,65.15-11.65,101.9-82.43,132.79,13.42-21-28.53-108.38,68.84-136.94q-41.88,58.24-48.18,89.87Z" transform="translate(-437.93 -791.28)"/><path class="cls-1" d="M1149.57,1489.54q32.88-39.33,51.15-49c.11,44.43-20.08,65.74-70.49,77.49,11.4-12.22-5.61-74.91,62-81.88q-34.69,33.3-42.7,53.37Z" transform="translate(-437.93 -791.28)"/><path class="cls-1" d="M1051.86,1384.28q87.5-37.41,125.84-38c-37.22,73.59-88.55,91.86-181.85,68.86,29.16-10.62,53.77-128.66,171.57-83.24Q1082,1357.8,1051.86,1384.28Z" transform="translate(-437.93 -791.28)"/><path class="cls-1" d="M1132.53,1090.89q53,38.27,67,60.65c-56.53,4.17-85.49-19.58-105-82.68,16.59,13.4,94.82-13.95,109.84,71.53q-45.52-41.15-71.8-49.5Z" transform="translate(-437.93 -791.28)"/><path class="cls-1" d="M1683.66,1090.89q-53,38.27-67,60.65c56.53,4.17,85.49-19.59,105-82.68-16.59,13.4-94.82-13.94-109.84,71.53q45.53-41.13,71.8-49.5Z" transform="translate(-437.93 -791.28)"/><path class="cls-1" d="M956.78,1222.82q136-15.21,189-.07c-81.78,85.88-160,89.74-279,19.35,44.55-2.53,127.42-154.84,270.78-43.41Q1009.26,1198.87,956.78,1222.82Z" transform="translate(-437.93 -791.28)"/><path class="cls-1" d="M1859.41,1222.82q-136-15.21-189-.07c81.78,85.88,160.06,89.74,279,19.35-44.55-2.53-127.42-154.84-270.78-43.41Q1806.93,1198.87,1859.41,1222.82Z" transform="translate(-437.93 -791.28)"/><path class="cls-1" d="M1414.53,1010.18q5.76,136.71-13,188.59c-80-87.53-78.45-165.88,0-279.64-.56,44.62,145.65,137.84,24.57,273.14q8.7-128.08-11.56-182.09Z" transform="translate(-437.93 -791.28)"/><path class="cls-1" d="M1272.75,1183.85q58.63,63.89,70.73,96.7c-74.53-9.73-105.78-48.34-114.22-135.51,18,21.85,126.88,7.29,123.48,122.32q-48.1-65.62-80-83.51Z" transform="translate(-437.93 -791.28)"/><path class="cls-1" d="M1543.44,1183.85q-58.64,63.89-70.74,96.7c74.54-9.73,105.78-48.34,114.23-135.51-18,21.85-126.88,7.3-123.47,122.32q48.09-65.61,80-83.51Z" transform="translate(-437.93 -791.28)"/><path class="cls-1" d="M1210,923.36q62.63,97.74,71,143.77c-96-30-128.36-88.06-119.45-204.94,18.64,32.94,165.61,38.8,134.68,189.68q-48.33-97.59-86.26-128.51Z" transform="translate(-437.93 -791.28)"/><path class="cls-1" d="M1606.19,923.36q-62.62,97.74-71,143.77c96-30,128.36-88.06,119.46-204.94C1636,895.13,1489,901,1519.93,1051.87q48.35-97.59,86.26-128.51Z" transform="translate(-437.93 -791.28)"/><path class="cls-1" d="M1334.2,829.34q10.85,58,6,81.28c-39.52-32.45-43.66-66-17.16-119.34,2.5,19.07,70.61,49.88,27.24,115.05q-4.14-55.19-16.1-77Z" transform="translate(-437.93 -791.28)"/><path class="cls-1" d="M1482,829.33q-10.85,58-6,81.29c39.52-32.45,43.66-66,17.16-119.34-2.5,19.07-70.61,49.89-27.24,115.05q4.14-55.19,16.1-77Z" transform="translate(-437.93 -791.28)"/><path class="cls-1" d="M964.62,1046.11q62,29.25,80.7,49.66c-57.48,15.15-91.9-3.78-124.15-65.08,19.68,10.64,95.09-32.58,127,52.66q-54.84-33.67-83.53-37.24Z" transform="translate(-437.93 -791.28)"/><path class="cls-1" d="M1851.57,1046.11q-62,29.25-80.7,49.66c57.49,15.15,91.9-3.78,124.15-65.08-19.68,10.64-95.08-32.58-127,52.66q54.84-33.67,83.53-37.24Z" transform="translate(-437.93 -791.28)"/><path class="cls-1" d="M1056.39,918.93q62,29.27,80.7,49.66c-57.49,15.16-91.9-3.77-124.15-65.07,19.68,10.63,95.09-32.59,127,52.65q-54.83-33.66-83.52-37.24Z" transform="translate(-437.93 -791.28)"/><path class="cls-1" d="M1759.8,918.93q-62,29.27-80.69,49.66c57.48,15.16,91.9-3.77,124.14-65.07-19.68,10.63-95.08-32.59-127,52.65q54.83-33.66,83.52-37.24Z" transform="translate(-437.93 -791.28)"/><path class="cls-1" d="M1774.22,1384.28q-87.48-37.41-125.84-38c37.22,73.59,88.55,91.86,181.85,68.86-29.16-10.63-53.77-128.66-171.57-83.24Q1744.08,1357.81,1774.22,1384.28Z" transform="translate(-437.93 -791.28)"/></svg>