<svg id="Layer_1" data-name="Layer 1" xmlns="http://www.w3.org/2000/svg" viewBox="0 0 3884.74 1790.74"><defs><style>.cls-1{fill:#e9dfce;}.cls-2{fill:#ccd4dc;}.cls-3{fill:#96afd7;}.cls-4{fill:#ffe197;}.cls-5{fill:#fff;}.cls-6{fill:#ffa599;}.cls-7{fill:#5a281c;}</style></defs><path class="cls-1" d="M2492,2251c-4.39,13.74-9.71,28.18-16.63,41.67,42.52-5.14,85.3-8.79,128.16-11.7a21.14,21.14,0,0,1,2-4.22c108.1-171.82,110.79-390.93,6.4-565.07q-80.65.61-161.32.88c21.73,35.17,34.73,76.08,44.21,115.91,22.73,95.52,28.34,196.92,20.07,294.62C2511.27,2166.15,2505.18,2209.76,2492,2251Z" transform="translate(-472.16 -1104.52)"/><path class="cls-2" d="M3739.53,2241.33c35.26-.76,70.52-1.6,105.78-2.31,1.69,0,3.37-.05,5.05-.09,77.92-162.92,71.64-361.61-18.22-518.4q-53-.37-106-.86a18.39,18.39,0,0,1-2.06.67C3807.91,1880.44,3812.41,2076.27,3739.53,2241.33Z" transform="translate(-472.16 -1104.52)"/><path class="cls-3" d="M3865.82,2277.45a16.42,16.42,0,0,1-2.22.05c-40.38.8-80.77,1.45-121.15,2.32-9.8.21-19.6.47-29.39.68a16.8,16.8,0,0,1-4,.1q-245.85,5.4-491.64,12.85c-175.1,5.48-350.24,11.65-525.15,21.66-63.84,3.66-127.71,7.7-191.36,13.87-36.21,3.52-60.6,6.89-95.58,12.54-24.46,3.94-49,9.16-73.76,11.27-16.77,1.42-33.62-.36-50.34-1.67q-70.72-5.49-141.61-8.7c-83.47-3.91-167-6.47-250.54-8.47a262.32,262.32,0,0,1,40.85,65.21c33.25,75.78,39.09,161.87,30,243.37-8.32,74.81-28.21,151.65-76.35,210,46.82-2.7,93.64-5.45,140.48-8q219.24-11.84,438.59-21.5,132.63-5.82,265.28-10.65c71.79-2.6,143.91-3,215.52-8.88,68-5.62,136.32-6.24,204.47-8.62,89.21-3.11,178.41-6.89,267.48-12.88,174.68-11.76,348.89-32.47,519.44-72.75,26.19-93.85,48.32-193,17.43-288.4-16.15-49.91-39.7-98.17-65.83-143.8ZM3783.13,2628c-38.33,28.26-95.22,25.8-140.37,29q-90,6.39-180.23,8.53-45.89,1.09-91.8,1.07c-22.91,0-47.53-1.5-64.9-18.49-15.23-14.91-19.78-36.58-20.58-57.12-1.05-26.76,1.71-54,2.9-80.76,1-22.63,2.78-46.57,18.36-64.43,16.35-18.74,40.92-22.63,64.34-25.38,89.05-9.86,179-13.1,268.5-17.3,36.92-1.74,75-6.15,112-4.71a75.39,75.39,0,0,1,55.2,27.14c15.33,18.48,17.67,39.73,17.49,62.93C3823.66,2535.9,3825.49,2596.79,3783.13,2628Z" transform="translate(-472.16 -1104.52)"/><path class="cls-2" d="M2763.44,1710.38q-53.73.43-107.46,1c96.62,176.22,94.21,392.73-6.51,566.77,36.92-2.08,73.84-3.81,110.67-5.5,105.81-171.51,107.62-389,3.46-561.94C2763.53,1710.6,2763.51,1710.49,2763.44,1710.38Z" transform="translate(-472.16 -1104.52)"/><path class="cls-1" d="M3247.78,1714.06c-126.1-1.61-252.21-3.32-378.31-4-20.65-.11-41.28.1-61.91.18,95.83,173.85,95.16,387.18-1.47,560.26,181.84-8.69,363.82-14.59,545.78-19.73q172.32-4.87,344.66-8.52c79.8-164,73.89-364.92-17.3-523Q3463.5,1717.09,3247.78,1714.06Z" transform="translate(-472.16 -1104.52)"/><path class="cls-1" d="M3876.58,1720.89c83,159,87.85,353,16.55,517.27,1.46,0,2.92,0,4.38-.09.39,0,.78,0,1.17,0q73.35-1.42,146.69-2.67c47.37-164.22,46.81-350.86-1.83-514.35Q3960.06,1721.25,3876.58,1720.89Z" transform="translate(-472.16 -1104.52)"/><path class="cls-4" d="M3664.47,1663.35c9.72,9.6,22.44,14.86,35.69,17.37,33,.32,66,.71,99,1q22.35.18,44.7.32h.51c105.75.75,211.52,1.17,317.26-.32,39.51-.55,79.05-1.25,118.51-3.35,12.33-.65,24.63-1.48,36.91-2.76l1.21-.14v-61q-20.59.63-41.22,1.26c-93.92,2.73-187.86,5-281.82,6.32-77.55,1.07-157.74,6-235-2.83-11.37-1.3-18.13-8-19.33-19.33-7.25-68.63-9.13-139.25-2.37-207.93,3.77-38.26,9.56-78.53,27.81-112.93,6.16-11.62,12.89-22.62,27-24,4.51-.46,9.25-.1,13.78-.15l164-1.72,309.86-3.25v-73.56c-26.31.86-53.36-1.18-79.35-1.38l-205-1.55q-132.44-1-264.87-2.08l-.09,0c-20.82.2-44.32,5.86-58.08,22.84-10.6,13.09-9.2,31.71-10.53,47.62-6.89,81.86-12,164-13.47,246.1-.76,42.26-.6,84.58,1.8,126.79C3652.27,1632.24,3651,1650.12,3664.47,1663.35Z" transform="translate(-472.16 -1104.52)"/><path class="cls-5" d="M1808.06,2894.17c1.9.55,5.56.29,1.78.13C1809.25,2894.28,1808.65,2894.21,1808.06,2894.17Z" transform="translate(-472.16 -1104.52)"/><path class="cls-5" d="M3763,2439.7c-13.77-5.76-32.44-1.92-47-1.31s-29.27,1.26-43.9,1.92q-54.47,2.45-108.9,5.28c-64.12,3.39-128.48,6.46-192.33,13.53-10.35,1.21-23.66,2.3-32.15,9.06-8.79,7-10.29,18.94-11.22,29.39-2.21,25.06-2.49,50.58-3.38,75.72-.61,17-3.11,43.58,16,51.69,8.41,3.58,18.59,2.92,27.5,3,14.78.12,29.56,0,44.33-.2,98.94-1,199.81-2.87,298.12-14.93,17-2.08,35.92-5.39,50.09-15.66,14.81-10.74,19.58-28.2,21.86-45.5,3.34-25.33,5.38-53.3,3.36-78.8C3784.17,2458.41,3776.87,2445.52,3763,2439.7Z" transform="translate(-472.16 -1104.52)"/><path class="cls-5" d="M1795.24,2870.62c0-.14.08-.29.13-.43,0,.09-.12.17-.16.27Z" transform="translate(-472.16 -1104.52)"/><path class="cls-5" d="M4237.27,1289l-434.7,4.57c-12.56,21.06-17.84,46.19-21.79,70.09-5.72,34.68-7.08,70.16-7.29,105.25-.22,37.67,1.15,75.54,4.44,113.13,29.66,2.2,59.67,2,89.3,2.12,127.59.61,255.26-2.34,382.83-6.21-8.85-28.17-14.55-57.65-18.61-86.69-9.42-67.45-8.31-136,7.89-202.28Z" transform="translate(-472.16 -1104.52)"/><path class="cls-3" d="M1741.82,2852.23c20.81.84,41.66,1.47,62.43,3a111.73,111.73,0,0,1,11.65,1.15c3.53-.22,7.06-.39,10.59-.6.07-.06.11-.13.19-.2,78.71-67.49,98.51-181.16,98.33-280-.15-86.4-20.56-185.91-91.44-242.83-12.83-.27-25.65-.57-38.48-.83-219.4-4.39-438.85-6.13-658.29-7-120.95-.5-241.86-.75-362.77-1.72a20,20,0,0,1-11.4-.11c-83.79-.72-167.57-1.84-251.37-3.79V2388l19.63.44q289.35,6.4,578.75,11.29,293,5.37,586.05,10.11c19.21.29,39.41-1.13,57.63,5.91,33.6,13,47.45,41.38,55.83,74.36,15.3,60.19,21.69,126,3.66,186.36-14.17,47.47-42.45,94.07-97.32,96.09-49.88,1.84-100,1.18-149.89,1-232.37-.82-464.74-8.5-696.93-17.4q-178.7-6.86-357.31-15.42a397.68,397.68,0,0,0,2.93,72.81q134.63,4.53,269.26,8.41,352.52,10.64,705,21.51C1573,2846.15,1657.42,2848.82,1741.82,2852.23Z" transform="translate(-472.16 -1104.52)"/><path class="cls-5" d="M1602.85,2734.93q36.24,0,72.49-.43c25.18-.3,56.83,4.72,74.86-16.7,25.82-30.69,34.07-76.78,34.75-115.46.62-35.63-5-70.86-13.94-105.28-8-30.72-21.53-47.81-54.63-48.28q-49.41-.72-98.81-1.53-306.85-5-613.68-10.85-161.49-3-323-6.2c45,85,18.89,192.17-21,277.41,88.93,4,177.84,8.77,266.74,12C1151.91,2727.92,1377.4,2735.1,1602.85,2734.93Zm-207.33-89.28-39.68-.44-275.67-3c-24.91-.27-24.89-38.93,0-38.66l39.68.44,275.67,3C1420.43,2607.26,1420.41,2645.92,1395.52,2645.65ZM785,2526.44q222-7.83,444,4.86c24.77,1.42,24.85,40.08,0,38.66q-221.76-12.67-444-4.86C760.06,2566,760.18,2527.31,785,2526.44Z" transform="translate(-472.16 -1104.52)"/><path class="cls-4" d="M971.6,1658.82c12.49,12.47,27.75,13.36,44.29,13.4q33.23.09,66.47.18,191.36.49,382.7,1,237.82.54,475.67.8,226.56.22,453.11-.13c102.8-.23,205.62-.3,308.4-1.89,86.09-1.33,172.18-.83,258.27-.05,134.19,1.22,268.37,3.07,402.55,4.79q132.57,1.71,265.14,3.14c-9.84-14.42-13.25-31.16-14.59-49.74-7.27-101-2.32-203.09,4.32-304,2.68-40.75,2.46-84.21,10.22-124.37a71.26,71.26,0,0,1,14.56-31.31q-149.61-1.2-299.21-2.43-203.37-1.71-406.72-3.48-214.49-1.86-429-3.87-217-2-434.07-4.2-207.8-2.1-415.58-4.41-186.95-2.1-373.88-4.49-83.51-1.1-167-2.27l-75.39-1.11c-13.77-.21-29.38-2.52-42.61,1.84a46.07,46.07,0,0,0-31.28,39q-4,58.61-6.9,117.25c-4.87,98.53-8.33,197.52-4.33,296.14C957.58,1619.43,955.61,1642.86,971.6,1658.82Zm2378.27-354.6c7.22-23.78,44.52-13.58,37.28,10.27a429.24,429.24,0,0,0-5.64,230.3c6.11,24.16-31.18,34.38-37.28,10.27A468.91,468.91,0,0,1,3349.87,1304.22Zm-122.53,0c7.21-23.78,44.52-13.58,37.27,10.27a429.44,429.44,0,0,0-5.64,230.3c6.12,24.16-31.17,34.38-37.27,10.27A468.81,468.81,0,0,1,3227.34,1304.22Zm-2080.21,90.89c10.9-56.13,62.51-96.51,113.72-114.79,61.58-22,129.21-6.66,171.38,44.58,22,28.19,36.18,62.22,34.36,98.52a134,134,0,0,1-49.24,96.57c-49,39.77-121.18,46.86-179.09,23.54C1179.34,1519.8,1134.41,1460.59,1147.13,1395.11Z" transform="translate(-472.16 -1104.52)"/><path class="cls-5" d="M985.26,2177.59q156.29,5.57,312.61,9.19c191.41,4.34,382.85,5.88,574.3,6.3q160.47.35,320.93.18c29.09,0,58.86,1.86,87.88,0,17.33-1.11,28.86-10.53,35-26.47,8.6-22.29,14-46.11,17.07-69.75,4.87-37.56,4.28-75.9.78-113.55a715.78,715.78,0,0,0-11.61-76.64c-4.22-20.77-5.51-52.56-24.89-65.44-10.49-7-21.84-6-33.89-5.74l-41,.93-85.1,1.92-157.3,3.59q-239.44,5.48-478.87,10.83c-95.52,2.06-191.05,4.12-286.59,5.12-53.82.56-107.69.89-161.51-.65-31-.89-61.95-2.78-92.86-5.3,40.46,103.3,45.77,219.42,10.58,324.93C975.61,2177.22,980.44,2177.42,985.26,2177.59Z" transform="translate(-472.16 -1104.52)"/><path class="cls-6" d="M1265.42,1512c45.53,12.84,101,6.07,135.22-29,35.47-36.32,34.87-91.52,4.26-130.79-18.83-22.87-44.23-39.68-74.16-43.13-23.13-2.66-47.3,2.73-68.46,12-36.38,15.84-74.76,47.61-78.62,89.82C1179.16,1460.14,1221.26,1499.57,1265.42,1512Z" transform="translate(-472.16 -1104.52)"/><path class="cls-1" d="M1331.58,2287.29c169,1.23,337.93,3.19,506.85,6.94a16.77,16.77,0,0,1,6,.13c19.18.43,38.36.78,57.54,1.26,95.33,2.41,190.68,5.32,285.89,10.59,36.66,2,73.23,4.94,109.85,7.51,7.86.55,15.74,1.08,23.63.94q5-.09,9.93-.51c1.81-.15,3.62-.38,5.43-.55l1-.09.11,0c28.28-4.29,56.45-9.23,84.73-13.55,20-19.2,30.17-49.85,37.48-77.66,22.59-85.85,23.23-178.67,15.73-266.59-6.67-78.33-19.43-168.16-65.4-234.28a17.88,17.88,0,0,1-3.3-8.75q-70,.15-140,.23-238.71.19-477.4-.24-233.15-.36-466.27-1l-187.75-.48-77-.21c-19,0-39.62,1.7-59.05-.14q-57.92-.15-115.81-.21c-31.08-.05-83.88-9.78-84.51,35.56-.17,12.4-.37,24.91,0,37.3.34,10.94,5.14,14.61,15.56,16,22.78,2.94,45.83,4.54,68.69,6.85,35.36,3.59,70.74,7.18,106.21,9.5,40,2.63,80.15,3.61,120.27,3.9,67.41.51,134.83-.55,202.23-1.7,116.47-2,232.93-4.65,349.39-7.29q282-6.36,563.93-12.85c24.84-.56,53.37-5.38,77.2,3.34a74.49,74.49,0,0,1,43.64,42.34c9.66,24.28,13.45,52.54,17.86,78.22,4.05,23.59,7.2,47.4,9.07,71.26,4.75,60.77,1.86,125.41-19.69,183.08-6.18,16.55-14.3,31.06-28.93,41.59-19.22,13.82-40.08,14.22-62.88,14.22q-85.18,0-170.39,0-151.55,0-303.08-.44c-190.12-.74-380.22-3-570.29-8q-160.93-4.23-321.81-10.55c-25.51-1-52-4.1-77.51-1.37-17.5,1.88-31.67,4.62-34.12,22.14-2.32,16.54-.82,34.33,1.86,51.32C968.16,2286.55,1149.87,2286,1331.58,2287.29Z" transform="translate(-472.16 -1104.52)"/><path class="cls-7" d="M1674.56,2888.35c33.18,1.19,66.36,2.39,99.54,3.92,9.26.42,18.52.83,27.78,1.44l2.07.16a19.4,19.4,0,0,0,8.67,1.34c199.25-12.19,398.65-22.2,598.06-31.19q130.84-5.91,261.72-10.91c82.53-3.13,165.38-3.88,247.8-9.19,146.66-9.44,293.66-11.35,440.42-19.84,199.91-11.56,399.92-32.88,594.9-79.88,6.52-1.57,11.71-7.17,13.5-13.5,28.83-101.85,54.42-211.25,22-315.5-14.9-47.92-36.45-94.62-60.74-139,38.46-.71,76.91-1.58,115.37-2.2l14.36-.24a19.82,19.82,0,0,0,18.64-14.19c27.41-89.14,38.69-183.38,38.85-276.47.15-88.07-9.86-177.14-33.84-262.07h3.73c76.87-.43,155.58,1.89,232.09-7.1,7.57-.89,16-1.45,23.22-4.14,8.08-3,14.19-9.6,14.19-18.64v-96.65c0-10.2-8.86-19.68-19.34-19.33-15.77.52-31.56,1-47.34,1.48-31.49-90.42-35.82-196.14-10.94-288.13l20.93-.22a19.63,19.63,0,0,0,19.33-19.33V1156.33a19.63,19.63,0,0,0-19.33-19.33l-66.16-.49q-91.85-.67-183.68-1.38-139.56-1.07-279.11-2.17-176.17-1.39-352.36-2.84-201.75-1.66-403.5-3.41-216.24-1.87-432.48-3.86-219.66-2-439.32-4.2-212-2.1-424.05-4.43-193.3-2.13-386.61-4.54-85.77-1.1-171.55-2.28-40.45-.56-80.91-1.15c-26.2-.39-54.57-3.82-80.49.2-38.54,6-64.3,37-69.89,74.12a21.58,21.58,0,0,0-.81,4.56c-6.17,91.2-10.78,182.56-12.31,274-.83,49.63-.84,99.34,1.5,148.94,1.06,22.46,1.83,44.56,14.45,64l-54.13-.1c-41.79-.06-88.74-4.42-110.57,39.73-10.89,22-8.74,51.79-7.64,75.83.94,20.46,12.11,38.57,31.51,46.32,9.53,3.8,20.19,4,30.34,5,31.51,3.08,63,6.34,94.51,9.4C963.18,1951,968,2069.55,930.34,2175.54c-11.37-.42-22.73-.82-34.1-1.26-26.47-1-53.63-3.89-80.06-1.09-20.29,2.15-44.66,7.8-58.21,24.42-9.47,11.59-11.61,27.55-12.44,42-.86,14.88.22,30.07,2.18,45.08q-90.72-.93-181.43-2.78-37.17-.81-74.35-1.72c-10.45-.26-19.33,9.07-19.33,19.33v107.33c0,10.63,8.86,19.08,19.33,19.33,47.7,1.14,95.41,2,143.11,3,57.42,81.9,24.8,193.71-17.1,276.48-39.4-1.66-78.79-3.15-118.18-4.18-2.17-.06-4.34-.21-6.5-.32-11.08-.55-18.47,9.35-19.33,19.33-3.34,38.45-2.09,79,5,116.93,1.58,8.46,10.65,13.92,18.63,14.19,185.89,6.35,371.82,11.51,557.73,17.09C1261.72,2875,1468.16,2880.94,1674.56,2888.35Zm120.68-17.73,0-.16c0-.1.13-.18.16-.27C1795.32,2870.33,1795.28,2870.48,1795.24,2870.62Zm12.82,23.55c.59,0,1.19.11,1.78.13C1813.62,2894.46,1810,2894.72,1808.06,2894.17Zm2144.23-473.31c30.89,95.43,8.76,194.55-17.43,288.4-170.55,40.28-344.76,61-519.44,72.75-89.07,6-178.27,9.77-267.48,12.88-68.15,2.38-136.48,3-204.47,8.62-71.61,5.92-143.73,6.28-215.52,8.88q-132.64,4.8-265.28,10.65-219.35,9.61-438.59,21.5c-46.84,2.53-93.66,5.28-140.48,8,48.14-58.34,68-135.18,76.35-210,9.06-81.5,3.22-167.59-30-243.37a262.32,262.32,0,0,0-40.85-65.21c83.54,2,167.07,4.56,250.54,8.47q70.88,3.32,141.61,8.7c16.72,1.31,33.57,3.09,50.34,1.67,24.72-2.11,49.3-7.33,73.76-11.27,35-5.65,59.37-9,95.58-12.54,63.65-6.17,127.52-10.21,191.36-13.87,174.91-10,350-16.18,525.15-21.66q245.79-7.71,491.64-12.85a16.8,16.8,0,0,0,4-.1c9.79-.21,19.59-.47,29.39-.68,40.38-.87,80.77-1.52,121.15-2.32a16.42,16.42,0,0,0,2.22-.05l20.64-.39C3912.59,2322.69,3936.14,2371,3952.29,2420.86ZM2494.84,1828.49c-9.48-39.83-22.48-80.74-44.21-115.91q80.65-.22,161.32-.88c104.39,174.14,101.7,393.25-6.4,565.07a21.14,21.14,0,0,0-2,4.22c-42.86,2.91-85.64,6.56-128.16,11.7,6.92-13.49,12.24-27.93,16.63-41.67,13.2-41.26,19.29-84.87,22.93-127.91C2523.18,2025.41,2517.57,1924,2494.84,1828.49Zm1201.69,413.78q-172.34,3.81-344.66,8.52c-182,5.14-363.94,11-545.78,19.73,96.63-173.08,97.3-386.41,1.47-560.26,20.63-.08,41.26-.29,61.91-.18,126.1.66,252.21,2.37,378.31,4q215.71,2.76,431.45,5.2C3770.42,1877.35,3776.33,2078.3,3696.53,2242.27Zm27.54-521.93a18.39,18.39,0,0,0,2.06-.67q53,.49,106,.86c89.86,156.79,96.14,355.48,18.22,518.4-1.68,0-3.36.06-5.05.09-35.26.71-70.52,1.55-105.78,2.31C3812.41,2076.27,3807.91,1880.44,3724.07,1720.34Zm-963.93,552.3c-36.83,1.69-73.75,3.42-110.67,5.5,100.72-174,103.13-390.55,6.51-566.77q53.73-.52,107.46-1c.07.11.09.22.16.32C2867.76,1883.64,2866,2101.13,2760.14,2272.64Zm1285.23-37.25q-73.35,1.17-146.69,2.67c-.39,0-.78,0-1.17,0-1.46,0-2.92,0-4.38.09,71.3-164.26,66.48-358.3-16.55-517.27q83.48.46,167,.15C4092.18,1884.53,4092.74,2071.17,4045.37,2235.39Zm-395.9-747.51c1.48-82.15,6.58-164.24,13.47-246.1,1.33-15.91-.07-34.53,10.53-47.62,13.76-17,37.26-22.64,58.08-22.84l.09,0q132.43,1.07,264.87,2.08l205,1.55c26,.2,53,2.24,79.35,1.38v73.56L3971,1253.12l-164,1.72c-4.53.05-9.27-.31-13.78.15-14.08,1.39-20.81,12.39-27,24-18.25,34.4-24,74.67-27.81,112.93-6.76,68.68-4.88,139.3,2.37,207.93,1.2,11.34,8,18,19.33,19.33,77.27,8.8,157.46,3.9,235,2.83,94-1.29,187.9-3.59,281.82-6.32q20.63-.6,41.22-1.26v61l-1.21.14c-12.28,1.28-24.58,2.11-36.91,2.76-39.46,2.1-79,2.8-118.51,3.35-105.74,1.49-211.51,1.07-317.26.32h-.51q-22.35-.16-44.7-.32c-33-.25-66-.64-99-1-13.25-2.51-26-7.77-35.69-17.37-13.43-13.23-12.2-31.11-13.2-48.68C3648.87,1572.46,3648.71,1530.14,3649.47,1487.88Zm582,3.36c4.06,29,9.76,58.52,18.61,86.69-127.57,3.87-255.24,6.82-382.83,6.21-29.63-.14-59.64.08-89.3-2.12-3.29-37.59-4.66-75.46-4.44-113.13.21-35.09,1.57-70.57,7.29-105.25,3.95-23.9,9.23-49,21.79-70.09l434.7-4.57,2.07,0C4223.14,1355.19,4222,1423.79,4231.45,1491.24ZM961.06,1302.38q2.91-58.67,6.9-117.25a46.07,46.07,0,0,1,31.28-39c13.23-4.36,28.84-2.05,42.61-1.84l75.39,1.11q83.52,1.18,167,2.27,186.95,2.41,373.88,4.49,207.8,2.33,415.58,4.41,217,2.19,434.07,4.2,214.48,2,429,3.87,203.35,1.78,406.72,3.48,149.61,1.23,299.21,2.43a71.26,71.26,0,0,0-14.56,31.31c-7.76,40.16-7.54,83.62-10.22,124.37-6.64,100.92-11.59,203-4.32,304,1.34,18.58,4.75,35.32,14.59,49.74q-132.57-1.43-265.14-3.14c-134.18-1.72-268.36-3.57-402.55-4.79-86.09-.78-172.18-1.28-258.27.05-102.78,1.59-205.6,1.66-308.4,1.89q-226.56.48-453.11.13-237.82-.23-475.67-.8-191.35-.43-382.7-1-33.22-.11-66.47-.18c-16.54,0-31.8-.93-44.29-13.4-16-16-14-39.39-14.87-60.3C952.73,1499.9,956.19,1400.91,961.06,1302.38ZM784.61,2233.71c2.45-17.52,16.62-20.26,34.12-22.14,25.48-2.73,52,.38,77.51,1.37q160.88,6.21,321.81,10.55c190.07,5,380.17,7.26,570.29,8q151.54.59,303.08.44,85.18,0,170.39,0c22.8,0,43.66-.4,62.88-14.22,14.63-10.53,22.75-25,28.93-41.59,21.55-57.67,24.44-122.31,19.69-183.08-1.87-23.86-5-47.67-9.07-71.26-4.41-25.68-8.2-53.94-17.86-78.22a74.49,74.49,0,0,0-43.64-42.34c-23.83-8.72-52.36-3.9-77.2-3.34q-282,6.36-563.93,12.85c-116.46,2.64-232.92,5.31-349.39,7.29-67.4,1.15-134.82,2.21-202.23,1.7-40.12-.29-80.23-1.27-120.27-3.9-35.47-2.32-70.85-5.91-106.21-9.5-22.86-2.31-45.91-3.91-68.69-6.85-10.42-1.35-15.22-5-15.56-16-.37-12.39-.17-24.9,0-37.3.63-45.34,53.43-35.61,84.51-35.56q57.9.09,115.81.21c19.43,1.84,40.06.09,59.05.14l77,.21,187.75.48q233.13.57,466.27,1,238.69.34,477.4.24,70-.08,140-.23a17.88,17.88,0,0,0,3.3,8.75c46,66.12,58.73,155.95,65.4,234.28,7.5,87.92,6.86,180.74-15.73,266.59-7.31,27.81-17.49,58.46-37.48,77.66-28.28,4.32-56.45,9.26-84.73,13.55l-.11,0-1,.09c-1.81.17-3.62.4-5.43.55q-5,.42-9.93.51c-7.89.14-15.77-.39-23.63-.94-36.62-2.57-73.19-5.48-109.85-7.51-95.21-5.27-190.56-8.18-285.89-10.59-19.18-.48-38.36-.83-57.54-1.26a16.77,16.77,0,0,0-6-.13c-168.92-3.75-337.89-5.71-506.85-6.94-181.71-1.33-363.42-.74-545.11-2.26C783.79,2268,782.29,2250.25,784.61,2233.71Zm175.59-381.6c30.91,2.52,61.86,4.41,92.86,5.3,53.82,1.54,107.69,1.21,161.51.65,95.54-1,191.07-3.06,286.59-5.12q239.44-5.16,478.87-10.83l157.3-3.59,85.1-1.92,41-.93c12-.27,23.4-1.23,33.89,5.74,19.38,12.88,20.67,44.67,24.89,65.44a715.78,715.78,0,0,1,11.61,76.64c3.5,37.65,4.09,76-.78,113.55-3.07,23.64-8.47,47.46-17.07,69.75-6.14,15.94-17.67,25.36-35,26.47-29,1.86-58.79,0-87.88,0q-160.47,0-320.93-.18c-191.45-.42-382.89-2-574.3-6.3q-156.33-3.56-312.61-9.19c-4.82-.17-9.65-.37-14.48-.55C1006,2071.53,1000.66,1955.41,960.2,1852.11ZM680.9,2430.2q161.51,3.26,323,6.2,306.83,5.73,613.68,10.85,49.41.81,98.81,1.53c33.1.47,46.62,17.56,54.63,48.28,9,34.42,14.56,69.65,13.94,105.28-.68,38.68-8.93,84.77-34.75,115.46-18,21.42-49.68,16.4-74.86,16.7q-36.24.42-72.49.43c-225.45.17-450.94-7-676.23-15.28-88.9-3.27-177.81-8-266.74-12C699.79,2622.37,725.86,2515.23,680.9,2430.2ZM514.29,2813.52a397.68,397.68,0,0,1-2.93-72.81q178.6,8.76,357.31,15.42c232.19,8.9,464.56,16.58,696.93,17.4,49.9.18,100,.84,149.89-1,54.87-2,83.15-48.62,97.32-96.09,18-60.38,11.64-126.17-3.66-186.36-8.38-33-22.23-61.38-55.83-74.36-18.22-7-38.42-5.62-57.63-5.91q-293-4.36-586-10.11-289.38-5.31-578.75-11.29l-19.63-.44v-68.74c83.8,1.95,167.58,3.07,251.37,3.79a20,20,0,0,0,11.4.11c120.91,1,241.82,1.22,362.77,1.72,219.44.9,438.89,2.64,658.29,7,12.83.26,25.65.56,38.48.83,70.88,56.92,91.29,156.43,91.44,242.83.18,98.86-19.62,212.53-98.33,280-.08.07-.12.14-.19.2-3.53.21-7.06.38-10.59.6a111.73,111.73,0,0,0-11.65-1.15c-20.77-1.51-41.62-2.14-62.43-3-84.4-3.41-168.83-6.08-253.26-8.79q-352.49-11.33-705-21.51Q648.92,2817.87,514.29,2813.52Z" transform="translate(-472.16 -1104.52)"/><path class="cls-7" d="M3751.34,2398.44c-37-1.44-75.07,3-112,4.71-89.46,4.2-179.45,7.44-268.5,17.3-23.42,2.75-48,6.64-64.34,25.38-15.58,17.86-17.34,41.8-18.36,64.43-1.19,26.74-4,54-2.9,80.76.8,20.54,5.35,42.21,20.58,57.12,17.37,17,42,18.46,64.9,18.49q45.9.07,91.8-1.07,90.21-2.14,180.23-8.53c45.15-3.21,102-.75,140.37-29,42.36-31.23,40.53-92.12,40.9-139.51.18-23.2-2.16-44.45-17.49-62.93A75.39,75.39,0,0,0,3751.34,2398.44ZM3782,2551.68c-2.28,17.3-7.05,34.76-21.86,45.5-14.17,10.27-33.11,13.58-50.09,15.66-98.31,12.06-199.18,13.89-298.12,14.93-14.77.15-29.55.32-44.33.2-8.91-.07-19.09.59-27.5-3-19.07-8.11-16.57-34.71-16-51.69.89-25.14,1.17-50.66,3.38-75.72.93-10.45,2.43-22.41,11.22-29.39,8.49-6.76,21.8-7.85,32.15-9.06,63.85-7.07,128.21-10.14,192.33-13.53q54.45-2.87,108.9-5.28,21.95-1,43.9-1.92c14.55-.61,33.22-4.45,47,1.31s21.2,18.71,22.35,33.18C3787.34,2498.38,3785.3,2526.35,3782,2551.68Z" transform="translate(-472.16 -1104.52)"/><path class="cls-7" d="M1238.26,1543.53c57.91,23.32,130.11,16.23,179.09-23.54a134,134,0,0,0,49.24-96.57c1.82-36.3-12.39-70.33-34.36-98.52-42.17-51.24-109.8-66.56-171.38-44.58-51.21,18.28-102.82,58.66-113.72,114.79C1134.41,1460.59,1179.34,1519.8,1238.26,1543.53Zm-54.6-132.65c3.86-42.21,42.24-74,78.62-89.82,21.16-9.22,45.33-14.61,68.46-12,29.93,3.45,55.33,20.26,74.16,43.13,30.61,39.27,31.21,94.47-4.26,130.79-34.24,35.06-89.69,41.83-135.22,29C1221.26,1499.57,1179.16,1460.14,1183.66,1410.88Z" transform="translate(-472.16 -1104.52)"/><path class="cls-7" d="M3381.51,1544.79a429.24,429.24,0,0,1,5.64-230.3c7.24-23.85-30.06-34-37.28-10.27a468.91,468.91,0,0,0-5.64,250.84C3350.33,1579.17,3387.62,1569,3381.51,1544.79Z" transform="translate(-472.16 -1104.52)"/><path class="cls-7" d="M3259,1544.79a429.44,429.44,0,0,1,5.64-230.3c7.25-23.85-30.06-34-37.27-10.27a468.81,468.81,0,0,0-5.64,250.84C3227.8,1579.17,3265.09,1569,3259,1544.79Z" transform="translate(-472.16 -1104.52)"/><path class="cls-7" d="M1228.94,2570c24.85,1.42,24.77-37.24,0-38.66q-221.76-12.69-444-4.86c-24.8.87-24.92,39.53,0,38.66Q1007,2557.27,1228.94,2570Z" transform="translate(-472.16 -1104.52)"/><path class="cls-7" d="M1080.17,2603.53c-24.89-.27-24.91,38.39,0,38.66l275.67,3,39.68.44c24.89.27,24.91-38.39,0-38.66l-275.67-3Z" transform="translate(-472.16 -1104.52)"/></svg>