<svg xmlns="http://www.w3.org/2000/svg" viewBox="0 0 1697.04 1697.04"><defs><style>.cls-1{fill:#f8eee6;}.cls-2{fill:#7a421e;}.cls-3{fill:#216997;}.cls-4{fill:#dbcfbd;}.cls-5{fill:#236d9d;}.cls-6{fill:#216896;}.cls-7{fill:#298dcd;}.cls-8{fill:#eb6c4c;}.cls-9{fill:#ef7962;}</style></defs><g id="BASE"><circle class="cls-1" cx="848.52" cy="848.52" r="848.52"/><path class="cls-2" d="M1060.66,278.84c-431.79,0-781.82,350-781.82,781.82s350,781.82,781.82,781.82,781.81-350,781.82-781.82S1492.45,278.84,1060.66,278.84Zm550.16,1332c-140.8,140.8-335.3,227.88-550.16,227.89S651.3,1751.62,510.5,1610.82s-227.89-335.31-227.89-550.16S369.7,651.3,510.5,510.5s335.3-227.89,550.16-227.89S1470,369.7,1610.82,510.5s227.88,335.3,227.88,550.16S1751.62,1470,1610.82,1610.82Z" transform="translate(-212.14 -212.14)"/><path class="cls-3" d="M1252.44,1483.57c.23-4.64.45-9.36.59-14.11L965.23,1557a80.53,80.53,0,0,1-71.81-12.65l-25.29,7.69a18.63,18.63,0,0,1-22-9.33,85.34,85.34,0,0,0,104.28,50.58l302.12-91.92A173.08,173.08,0,0,1,1252.44,1483.57Z" transform="translate(-212.14 -212.14)"/><path class="cls-3" d="M1283.93,584.84A85.38,85.38,0,0,0,1177.4,528l-20.54,6.25h0l3.59-1.1a80.77,80.77,0,0,1,100.76,53.75l221.57,728.24A80.74,80.74,0,0,1,1429,1415.9l-106.21,32.32c-.3,2.66-.63,5.31-.83,8a235.09,235.09,0,0,0-.39,24.12l133.21-40.53a85.38,85.38,0,0,0,56.83-106.53Z" transform="translate(-212.14 -212.14)"/><polygon class="cls-3" points="404.01 575.87 631.74 1324.35 631.74 1324.35 404.01 575.87 404.01 575.87"/><path class="cls-4" d="M1204.19,584.74l218.06,716.7a78.46,78.46,0,0,1-52.23,97.92l-476.6,145A80.53,80.53,0,0,0,965.23,1557l287.8-87.56c.19-6,.26-12,0-17.93,2.36-.56,4.72-1.11,7.07-1.71,13-3.33,25.87-7.5,38.76-11.33,8.63-2.57,17.27-5.09,25.91-7.62-.6,5.73-1.34,11.51-2,17.35L1429,1415.9a80.74,80.74,0,0,0,53.75-100.75L1261.22,586.91a80.77,80.77,0,0,0-100.76-53.75l-3.59,1.1A78.26,78.26,0,0,1,1204.19,584.74Z" transform="translate(-212.14 -212.14)"/><path class="cls-5" d="M766.06,654l335.68-102.13a77.44,77.44,0,0,1,22.54-3.37,76.63,76.63,0,0,1,20,2.69A36.89,36.89,0,0,1,1167,561.47a77,77,0,0,1,31.22,41.86l139.22,457.59q5.65-.66,11.33-.91l73.46,241.43-218.06-716.7a78.26,78.26,0,0,0-47.32-50.48h0a78,78,0,0,0-50.59-1.76L661.6,667.79l108.42-33A49,49,0,0,1,766.06,654Z" transform="translate(-212.14 -212.14)"/><path class="cls-5" d="M661.6,667.79a78.23,78.23,0,0,0-46.39,38.15A78.23,78.23,0,0,1,661.6,667.79Z" transform="translate(-212.14 -212.14)"/><path class="cls-5" d="M1412.56,1367.69a78.14,78.14,0,0,1-42.55,31.67l-501.88,152.7,25.29-7.69,476.6-145A78.1,78.1,0,0,0,1412.56,1367.69Z" transform="translate(-212.14 -212.14)"/><path class="cls-5" d="M1175.55,574.08a37,37,0,1,1-46.49-21c-1.59-.1-3.18-.19-4.78-.19a72.66,72.66,0,0,0-21.24,3.18L763.44,659.44c-7.5,11.33-26.74,16.34-24.27,32.26A30.83,30.83,0,0,0,743.81,703c1.47,2.38,4.09,5.09,4.66,7.88.38,1.86-.58,4.72-1,6.63-.46,2.32-1,4.62-1.65,6.9-1.07,3.85-2.36,7.64-3.51,11.47-4.83,16.16-3.66,33.11,5.7,47.46,3.56,5.44,8.25,10.45,10.58,16.6,3.34,8.78.37,18.13-3.09,26.39a2.68,2.68,0,0,0,1.24,3c15.65,6.65,27.26,17.56,32,34.15,4.07,14.38,3.9,29.56,6.16,44.25,2.47,16,8.07,31.66,20.25,42.84C826.43,961,842,967.55,848.77,982c4.23,9,5.59,19.12,2.9,28.68-2.51,8.92-5.83,17.18-3.73,26.59a32.82,32.82,0,0,0,13.54,19.47c7.08,4.78,14.55,8,20.63,14.2,13.57,13.92,26.16,28.84,39,43.37,5.79,6.54,11.63,13.18,15.67,21a44.13,44.13,0,0,1,4.3,12.57,42,42,0,0,1,.61,7.34c0,2.66-.69,5.39-.6,8,.07,2.1,1.62,3.17,3.08,4.53,2,1.91,4.14,3.73,6.29,5.51,4.15,3.46,8.43,6.74,12.69,10.07,8.22,6.45,16.58,13.08,23.11,21.32,5.92,7.46,10.39,15.95,14.33,24.58,3.11,6.81,6.05,13.75,10.56,19.78,5.52,7.4,12.72,12.59,20.51,17.38a205.93,205.93,0,0,0,26.81,14.35c12.51,5.33,26.65,8.84,39.93,4.16,13.52-4.77,23.65-16,32.26-27,6.27-8,11.62-16.76,18.49-24.28a115.64,115.64,0,0,1,22.52-18.75c15.71-10.24,33.11-17.73,48.32-28.76a107.58,107.58,0,0,0,20.3-18.64,110.35,110.35,0,0,0,14.24-23.56c7.92-17,13.55-35.24,24.47-50.66,11.61-16.41,29.21-27,48.79-30.84,1.72-.34,3.45-.52,5.17-.78l-139-457A72.42,72.42,0,0,0,1175.55,574.08Z" transform="translate(-212.14 -212.14)"/><path class="cls-5" d="M1108.69,588.06a32.58,32.58,0,1,0,55.62-23l0,0a72.92,72.92,0,0,0-20.78-9.41c-.75-.05-1.48-.11-2.24-.11a32.57,32.57,0,0,0-32.58,32.58Z" transform="translate(-212.14 -212.14)"/><path class="cls-6" d="M660.69,773.81a32.58,32.58,0,1,0-23-55.62,32.06,32.06,0,0,0-5.32,7,72.21,72.21,0,0,0-3.6,9.69,32.8,32.8,0,0,0-.63,6.32,32.59,32.59,0,0,0,32.58,32.58Z" transform="translate(-212.14 -212.14)"/><path class="cls-6" d="M868.13,1552.06,1370,1399.36a78.45,78.45,0,0,0,52.24-97.92L1348.79,1060q-5.68.26-11.33.91L1407,1289.31a76.69,76.69,0,0,1-4,55.31,37.3,37.3,0,0,1-3.63,6.88,77,77,0,0,1-43.83,34.31L929.88,1515.3a77.25,77.25,0,0,1-96.5-51.48l-208.71-686a76.27,76.27,0,0,1-.28-43.91,36.56,36.56,0,0,1,4-10.79,77,77,0,0,1,47.74-41.79L766.06,654a49,49,0,0,0,4-19.18l-108.42,33a78.39,78.39,0,0,0-52.23,97.92l6.78,22.3,227.73,748.48,1,3.16a19.05,19.05,0,0,0,1.29,3.08A18.63,18.63,0,0,0,868.13,1552.06Z" transform="translate(-212.14 -212.14)"/><path class="cls-6" d="M1368.6,1298.21a32.59,32.59,0,1,0,23,55.63,33,33,0,0,0,3.92-4.75c1.2-2,2.28-4.09,3.28-6.2a32.58,32.58,0,0,0-30.24-44.68Z" transform="translate(-212.14 -212.14)"/><path class="cls-6" d="M1279.05,1093.21c-10.92,15.42-16.55,33.68-24.47,50.66a110.35,110.35,0,0,1-14.24,23.56,107.58,107.58,0,0,1-20.3,18.64c-15.21,11-32.61,18.52-48.32,28.76a115.64,115.64,0,0,0-22.52,18.75c-6.87,7.52-12.22,16.28-18.49,24.28-8.61,11-18.74,22.25-32.26,27-13.28,4.68-27.42,1.17-39.93-4.16a205.93,205.93,0,0,1-26.81-14.35c-7.79-4.79-15-10-20.51-17.38-4.51-6-7.45-13-10.56-19.78-3.94-8.63-8.41-17.12-14.33-24.58-6.53-8.24-14.89-14.87-23.11-21.32-4.26-3.33-8.54-6.61-12.69-10.07-2.15-1.78-4.25-3.6-6.29-5.51-1.46-1.36-3-2.43-3.08-4.53-.09-2.62.61-5.35.6-8a42,42,0,0,0-.61-7.34,44.13,44.13,0,0,0-4.3-12.57c-4-7.8-9.88-14.44-15.67-21-12.89-14.53-25.48-29.45-39-43.37-6.08-6.23-13.55-9.42-20.63-14.2a32.82,32.82,0,0,1-13.54-19.47c-2.1-9.41,1.22-17.67,3.73-26.59,2.69-9.56,1.33-19.72-2.9-28.68-6.82-14.44-22.34-21-33.61-31.33-12.18-11.18-17.78-26.83-20.25-42.84-2.26-14.69-2.09-29.87-6.16-44.25-4.7-16.59-16.31-27.5-32-34.15a2.68,2.68,0,0,1-1.24-3c3.46-8.26,6.43-17.61,3.09-26.39-2.33-6.15-7-11.16-10.58-16.6-9.36-14.35-10.53-31.3-5.7-47.46,1.15-3.83,2.44-7.62,3.51-11.47.63-2.28,1.19-4.58,1.65-6.9.37-1.91,1.33-4.77,1-6.63-.57-2.79-3.19-5.5-4.66-7.88a30.83,30.83,0,0,1-4.64-11.34c-2.47-15.92,16.77-20.93,24.27-32.26l-86,26.16a72.42,72.42,0,0,0-35.06,23.47,37,37,0,1,1-16.56,44.51c0,.58-.07,1.15-.07,1.72a72.68,72.68,0,0,0,3.18,21.25l208.71,686a72.45,72.45,0,0,0,19.76,31.79,37,37,0,1,1,39.71,19.13,71.12,71.12,0,0,0,31.47-2.41l425.6-129.49a72.54,72.54,0,0,0,28.55-16.53,37,37,0,1,1,22.18-41.47,72.26,72.26,0,0,0-2.22-32.94l-69.68-229c-1.72.26-3.45.44-5.17.78C1308.26,1066.26,1290.66,1076.8,1279.05,1093.21Zm-271.48,322c32.26-12.85,66.06-22.36,99.07-33.09s65.92-22.67,99.45-31.69a1.18,1.18,0,0,1,.63,2.28c-32.48,12.32-66.15,21.91-99.21,32.55s-66,22.7-99.6,31.16A.63.63,0,0,1,1007.57,1415.16Zm211.3-41.45c-32.48,12.31-66.16,21.91-99.22,32.55s-66,22.7-99.6,31.15a.62.62,0,0,1-.33-1.2c32.25-12.85,66.06-22.36,99.07-33.09s65.92-22.67,99.45-31.69C1219.74,1371,1220.26,1373.18,1218.87,1373.71Z" transform="translate(-212.14 -212.14)"/><path class="cls-6" d="M922.75,1477.08a32.59,32.59,0,1,0-9.54,23A32.48,32.48,0,0,0,922.75,1477.08Z" transform="translate(-212.14 -212.14)"/><path class="cls-7" d="M1167,561.47a36.89,36.89,0,0,0-22.77-10.29,76.63,76.63,0,0,0-20-2.69,77.44,77.44,0,0,0-22.54,3.37L766.06,654l-89.92,27.36a77,77,0,0,0-47.74,41.79,36.56,36.56,0,0,0-4,10.79,76.27,76.27,0,0,0,.28,43.91l208.71,686a77.25,77.25,0,0,0,96.5,51.48l425.6-129.49a77,77,0,0,0,43.83-34.31,37.3,37.3,0,0,0,3.63-6.88,76.69,76.69,0,0,0,4-55.31l-69.49-228.39L1198.24,603.33A77,77,0,0,0,1167,561.47Zm-23.51-5.88a72.92,72.92,0,0,1,20.78,9.41l0,0a32.59,32.59,0,1,1-23-9.54C1142,555.48,1142.76,555.54,1143.51,555.59ZM628.74,734.91a72.21,72.21,0,0,1,3.6-9.69,32.06,32.06,0,0,1,5.32-7,32.57,32.57,0,1,1-9.55,23A32.8,32.8,0,0,1,628.74,734.91Zm238.39,765.21a32.57,32.57,0,1,1,23,9.55A32.5,32.5,0,0,1,867.13,1500.12Zm531.71-157.23c-1,2.11-2.08,4.18-3.28,6.2a33,33,0,0,1-3.92,4.75,32.76,32.76,0,1,1,7.2-10.95Zm3.85-52.28a72.26,72.26,0,0,1,2.22,32.94,37,37,0,1,0-22.18,41.47,72.54,72.54,0,0,1-28.55,16.53L928.58,1511a71.12,71.12,0,0,1-31.47,2.41,37.05,37.05,0,1,0-39.71-19.13,72.45,72.45,0,0,1-19.76-31.79l-208.71-686a72.68,72.68,0,0,1-3.18-21.25c0-.57,0-1.14.07-1.72a37,37,0,1,0,16.56-44.51,72.42,72.42,0,0,1,35.06-23.47l86-26.16L1103,556.12a72.66,72.66,0,0,1,21.24-3.18c1.6,0,3.19.09,4.78.19a37,37,0,1,0,46.49,21A72.42,72.42,0,0,1,1194,604.63l139,457Z" transform="translate(-212.14 -212.14)"/><path class="cls-4" d="M1218.24,1371.43c-33.53,9-66.44,21-99.45,31.69s-66.82,20.24-99.07,33.09a.62.62,0,0,0,.33,1.2c33.64-8.45,66.59-20.53,99.6-31.15s66.74-20.24,99.22-32.55C1220.26,1373.18,1219.74,1371,1218.24,1371.43Z" transform="translate(-212.14 -212.14)"/><path class="cls-4" d="M1206.72,1352.66a1.18,1.18,0,0,0-.63-2.28c-33.53,9-66.43,21-99.45,31.69s-66.81,20.24-99.07,33.09a.63.63,0,0,0,.34,1.21c33.64-8.46,66.58-20.54,99.6-31.16S1174.24,1365,1206.72,1352.66Z" transform="translate(-212.14 -212.14)"/><path class="cls-8" d="M1322,1456.25c.2-2.72.53-5.37.83-8,.65-5.84,1.39-11.62,2-17.35-8.64,2.53-17.28,5.05-25.91,7.62-12.89,3.83-25.73,8-38.76,11.33-2.35.6-4.71,1.15-7.07,1.71.21,6,.14,12,0,17.93-.14,4.75-.36,9.47-.59,14.11a173.08,173.08,0,0,0,.09,17.82c1.12,21.41,6.09,40.89,12.91,62.67-2-6.22,14.1-41.36,19.65-41.54,4.61-.14,16.78,9,21.6,11,8.26,3.53,16.66,6.73,24.83,10.45-2.79-1.28-4.89-17.52-5.54-20.65a184.92,184.92,0,0,1-3.33-23.42c-.49-6.36-.85-12.94-1-19.54A235.09,235.09,0,0,1,1322,1456.25ZM1294.77,1502l-1.14-.28c1.1,4.41-.58,5.47-4.2,6-1.72.24-1.55-1-2.87.45-1,1.09.23,4.74-.38,6.25-5.6-1.4-2.35.55-5.53,3.77-.84.85-2.18.41-3.07,1.1-1.63,1.29-1.4,3.28-4.07,1.58-.74,2.37-1.18,5.49-3,7.31l-1.16-.56c-1.75,1.28-4,0-6.07,1-2.68,1.4-1.61,3.73-3.47,5.89-.29.33-3.1-9.56-3.24-10.36-.75-4.28-1.28-8.61-1.71-13a210,210,0,0,1-1-28.26c.22-5.91.6-11.89.94-17.76.23-3.88.05-8.1,0-12,1.67-.27,3.31.06,5-.23a63.68,63.68,0,0,0,12.3-3.39c4.6-1.78,9.59-4,14.31-5.3,2.46-.69,5.27-.26,7.64-.94.31,9.58-1.34,19.8-1.76,29.48-.27,6.18,3.16,12.08,3,18.44C1295.36,1494.9,1294.88,1498.38,1294.77,1502Z" transform="translate(-212.14 -212.14)"/><path class="cls-9" d="M1294.15,1443.27c-2.37.68-5.18.25-7.64.94-4.72,1.32-9.71,3.52-14.31,5.3a63.68,63.68,0,0,1-12.3,3.39c-1.71.29-3.35,0-5,.23,0,3.94.19,8.16,0,12-.34,5.87-.72,11.85-.94,17.76a210,210,0,0,0,1,28.26c.43,4.34,1,8.67,1.71,13,.14.8,3,10.69,3.24,10.36,1.86-2.16.79-4.49,3.47-5.89,2.06-1.08,4.32.24,6.07-1l1.16.56c1.81-1.82,2.25-4.94,3-7.31,2.67,1.7,2.44-.29,4.07-1.58.89-.69,2.23-.25,3.07-1.1,3.18-3.22-.07-5.17,5.53-3.77.61-1.51-.61-5.16.38-6.25,1.32-1.46,1.15-.21,2.87-.45,3.62-.52,5.3-1.58,4.2-6l1.14.28c.11-3.58.59-7.06.66-10.77.12-6.36-3.31-12.26-3-18.44C1292.81,1463.07,1294.46,1452.85,1294.15,1443.27Z" transform="translate(-212.14 -212.14)"/></g></svg>