<svg id="Layer_1" data-name="Layer 1" xmlns="http://www.w3.org/2000/svg" viewBox="0 0 2734.66 1747.91"><defs><style>.cls-1{fill:#ffd0ec;fill-rule:evenodd;}</style></defs><path class="cls-1" d="M399.75,1767.59c316.22-66.74,634.44,16.54,824.74,201C1064,1761.82,794.34,1664,459.23,1697.4l-59.48,70.19Zm2035,0c-316.22-66.74-634.44,16.54-824.75,201,160.53-206.78,430.16-304.62,765.27-271.2l59.48,70.19Zm157.95,140.33c-382.85-122.4-774-47.11-1022.78,155.47,170.68-222.47,541.7-320.64,966.87-244.7l55.91,89.23Zm-2350.89,0c382.86-122.4,774-47.11,1022.78,155.47-170.68-222.47-541.69-320.64-966.86-244.7l-55.92,89.23Z" transform="translate(-49.91 -543.27)"/><path class="cls-1" d="M1529.33,2138.86c329.2-243.44,816.54-255.35,1151.78-126.32,74.12,136.32,85.57,158.18,103.46,194.74-337.72-286.53-998-189.08-1231.65-28.31-12.69,93.08-59.45,114-135.68,112.1-76.23,1.86-123-19-135.68-112.1-233.67-160.76-893.93-258.22-1231.65,28.31,17.88-36.56,29.34-58.42,103.46-194.74,335.24-129,822.58-117.12,1151.78,126.32,10.64,35.23,37.16,59.38,69.56,72.42,20.87,8.4,64.19,8.4,85,0,32.4-13,58.93-37.19,69.57-72.42Z" transform="translate(-49.91 -543.27)"/><path class="cls-1" d="M1411.38,1300.05a85.85,85.85,0,1,1-85.86,85.85A85.85,85.85,0,0,1,1411.38,1300.05Zm-14.79,859.75q4.9-8.52,9.58-16.87-21.39-38.89-37.57-75-8.36-18.57-15.31-36.26-19.49,29.22-44.46,60.93c12.35,29.69,36.74,50.42,65.88,62.15,5.86,2.36,13.48,4.05,21.88,5.09Zm77.14-164.25c148.46-433.57-339.43-475.68-325.9-764.8-50.69,293.1,350.72,366.76,275.9,653.65,6.23,22.65,15.6,46.74,28.57,72.51q9.42,18.72,21.43,38.64Zm-39.32,164.63c-133.87-230.54-123.41-373.61-61.68-481.43q7.07,10.85,13.33,22.22a267.82,267.82,0,0,1,19,42.51l2,5.9c-25.1,86.77-3.82,193.86,117.31,346.19-12.71,28.09-36.43,47.81-64.58,59.14-6.65,2.68-15.59,4.5-25.35,5.47Zm-8.47-555.08c107.47-123.87,264.79-208.45,257-374.35,33.51,193.79-130.62,291.65-224.09,418.63q-5.24-8-10.79-15.68Q1437.52,1619,1425.94,1605.1Z" transform="translate(-49.91 -543.27)"/><path class="cls-1" d="M1779.23,1518.19q-45.88-54.92-71.41-68.38c-.15,62,28,91.79,98.43,108.19-15.92-17.07,7.83-104.59-86.63-114.32q48.44,46.48,59.61,74.51Z" transform="translate(-49.91 -543.27)"/><path class="cls-1" d="M1680.48,1666.23q-52.44-93-86.24-119.69c-17,91,16.26,142.27,115.08,185.4-18.73-29.35,39.84-151.32-96.11-191.2Q1671.7,1622.07,1680.48,1666.23Z" transform="translate(-49.91 -543.27)"/><path class="cls-1" d="M1142.27,1666.23q52.45-93,86.24-119.69c17,91-16.26,142.27-115.08,185.4,18.74-29.35-39.84-151.32,96.11-191.2q-58.47,81.33-67.27,125.49Z" transform="translate(-49.91 -543.27)"/><path class="cls-1" d="M1043.52,1518.19q45.9-54.92,71.41-68.38c.15,62-28,91.79-98.42,108.19,15.92-17.07-7.84-104.59,86.63-114.32q-48.45,46.48-59.62,74.51Z" transform="translate(-49.91 -543.27)"/><path class="cls-1" d="M907.08,1371.23q122.17-52.23,175.72-53c-52,102.75-123.65,128.26-253.91,96.14,40.71-14.83,75.07-179.63,239.55-116.22Q949.16,1334.26,907.08,1371.23Z" transform="translate(-49.91 -543.27)"/><path class="cls-1" d="M1019.72,961.6q74.05,53.42,93.51,84.67c-78.93,5.82-119.36-27.34-146.62-115.44C989.77,949.55,1099,911.36,1120,1030.7q-63.57-57.44-100.25-69.1Z" transform="translate(-49.91 -543.27)"/><path class="cls-1" d="M1789.23,961.6q-74.07,53.42-93.52,84.67c78.93,5.82,119.36-27.34,146.63-115.44-23.17,18.72-132.4-19.47-153.36,99.87q63.55-57.44,100.25-69.1Z" transform="translate(-49.91 -543.27)"/><path class="cls-1" d="M774.34,1145.8q189.87-21.24,263.94-.11c-114.19,119.91-223.47,125.3-389.5,27,62.2-3.53,177.91-216.18,378.07-60.61Q847.62,1112.36,774.34,1145.8Z" transform="translate(-49.91 -543.27)"/><path class="cls-1" d="M2034.61,1145.8q-189.87-21.24-263.95-.11c114.2,119.91,223.48,125.3,389.51,27-62.2-3.53-177.91-216.18-378.07-60.61Q1961.34,1112.36,2034.61,1145.8Z" transform="translate(-49.91 -543.27)"/><path class="cls-1" d="M1413.46,848.9q8,190.89-18.17,263.32c-111.72-122.22-109.53-231.61,0-390.44-.77,62.3,203.36,192.45,34.31,381.36q12.15-178.83-16.14-254.24Z" transform="translate(-49.91 -543.27)"/><path class="cls-1" d="M1215.5,1091.38q81.87,89.22,98.76,135c-104.06-13.59-147.69-67.49-159.49-189.21,25.07,30.51,177.16,10.19,172.41,170.79q-67.15-91.62-111.68-116.6Z" transform="translate(-49.91 -543.27)"/><path class="cls-1" d="M1593.44,1091.38q-81.87,89.22-98.76,135c104.06-13.59,147.69-67.49,159.49-189.2-25.07,30.5-177.16,10.19-172.4,170.78q67.15-91.61,111.67-116.6Z" transform="translate(-49.91 -543.27)"/><path class="cls-1" d="M1127.89,727.68q87.43,136.47,99.17,200.73C1093,886.57,1047.85,805.47,1060.28,642.28c26,46,231.23,54.16,188,264.83q-67.47-136.24-120.43-179.43Z" transform="translate(-49.91 -543.27)"/><path class="cls-1" d="M1681.06,727.68q-87.43,136.47-99.18,200.74C1716,886.57,1761.1,805.47,1748.67,642.28c-26,46-231.23,54.17-188.05,264.83q67.49-136.24,120.44-179.43Z" transform="translate(-49.91 -543.27)"/><path class="cls-1" d="M1301.3,596.41q15.14,81,8.4,113.48c-55.17-45.31-61-92.12-24-166.62,3.49,26.63,98.59,69.65,38,160.64Q1318,626.86,1301.3,596.4Z" transform="translate(-49.91 -543.27)"/><path class="cls-1" d="M1507.65,596.4q-15.15,81-8.41,113.49c55.18-45.3,61-92.12,24-166.62-3.49,26.63-98.59,69.65-38,160.64q5.79-77.05,22.49-107.51Z" transform="translate(-49.91 -543.27)"/><path class="cls-1" d="M785.28,899.06Q871.91,939.92,898,968.4c-80.26,21.16-128.32-5.27-173.34-90.86,27.48,14.85,132.76-45.49,177.29,73.52q-76.56-47-116.63-52Z" transform="translate(-49.91 -543.27)"/><path class="cls-1" d="M2023.66,899.06Q1937.05,939.92,1911,968.4c80.26,21.16,128.31-5.27,173.34-90.86-27.48,14.85-132.76-45.49-177.29,73.52q76.56-47,116.62-52Z" transform="translate(-49.91 -543.27)"/><path class="cls-1" d="M913.41,721.5q86.63,40.85,112.67,69.34C945.83,812,897.77,785.57,852.75,700c27.47,14.85,132.76-45.5,177.28,73.52q-76.54-47-116.62-52Z" transform="translate(-49.91 -543.27)"/><path class="cls-1" d="M1895.54,721.5q-86.61,40.85-112.68,69.34c80.26,21.16,128.32-5.27,173.34-90.86-27.48,14.84-132.76-45.49-177.29,73.52q76.56-47,116.63-52Z" transform="translate(-49.91 -543.27)"/><path class="cls-1" d="M1915.67,1371.23q-122.16-52.23-175.71-53c52,102.75,123.64,128.26,253.9,96.14-40.7-14.83-75.07-179.63-239.55-116.21Q1873.59,1334.25,1915.67,1371.23Z" transform="translate(-49.91 -543.27)"/></svg>