<svg xmlns="http://www.w3.org/2000/svg" viewBox="0 0 3876.3 2506.42"><defs><style>.cls-1{fill:#e0ccbe;}</style></defs><g id="Icon"><path class="cls-1" d="M3800.89,2311a621.58,621.58,0,0,0-297.66-158.3c125-53.24,212.79-177.3,212.79-321.48,0-192.59-156.69-349.27-349.27-349.27s-349.26,156.68-349.26,349.27c0,143.63,87.15,267.26,211.34,320.84a627.35,627.35,0,0,0-156.39,56c-30.36-62.77-72.33-120.54-124.87-170.84a621.55,621.55,0,0,0-300.48-158.93c124.2-53.61,211.34-177.24,211.34-320.86,0-192.59-156.67-349.26-349.26-349.26s-349.26,156.67-349.26,349.26c0,144.17,87.81,268.23,212.79,321.49a621.42,621.42,0,0,0-297.65,158.3c-53.14,50.87-95.48,109.4-125.94,173a626.52,626.52,0,0,0-160.55-58.13c124.18-53.58,211.33-177.21,211.33-320.84,0-192.59-156.69-349.27-349.28-349.27s-349.25,156.68-349.25,349.27c0,144.18,87.83,268.24,212.79,321.48A621.58,621.58,0,0,0,1216.49,2311c-117.15,112.18-181.83,261.53-182.16,420.53l85.46.16c.55-280.38,239.63-508.48,533-508.48,96.36,0,186.87,24.62,265,67.61a535.62,535.62,0,0,1,75,49.95c117.54,93.33,192.63,233.93,192.94,390.92l85.43-.16c-.3-159-65-308.35-182.14-420.53a618.3,618.3,0,0,0-66.44-55.28c82.29-180.1,270.5-306.35,488.71-306.35,217.08,0,404.46,124.92,487.42,303.53a620,620,0,0,0-70.37,58.1c-117.15,112.18-181.84,261.53-182.16,420.53l85.46.16c.3-158.92,77.26-301.05,197.29-394.36a535.26,535.26,0,0,1,75.17-48.94c77.1-41.51,166-65.18,260.51-65.18,293.34,0,532.42,228.1,533,508.48l85.46-.16C3982.73,2572.55,3918,2423.2,3800.89,2311Zm-2150.28-216c-145.46,0-263.81-118.35-263.81-263.82s118.35-263.82,263.81-263.82,263.82,118.34,263.82,263.82S1796.1,2095.06,1650.61,2095.06Zm858.56-273.83c-145.46,0-263.82-118.36-263.82-263.82s118.36-263.82,263.82-263.82S2773,1411.94,2773,1557.41,2654.64,1821.23,2509.17,1821.23Zm593.78,10c0-145.48,118.33-263.82,263.8-263.82s263.81,118.34,263.81,263.82-118.33,263.82-263.81,263.82S3103,1976.71,3103,1831.24Z" transform="translate(-570.54 -225.29)"/><path class="cls-1" d="M1479.53,643.35h-780a129.15,129.15,0,0,0-129,129v514.3a129.15,129.15,0,0,0,129,129h397.77l201,156.38a43,43,0,0,0,69.41-33.93V1415.65h111.86a129.15,129.15,0,0,0,129-129V772.35A129.15,129.15,0,0,0,1479.53,643.35Zm43,643.3a43,43,0,0,1-43,43H1324.67a43,43,0,0,0-43,43v77.5l-143.19-111.43a43,43,0,0,0-26.41-9.07H699.54a43,43,0,0,1-43-43V772.35a43,43,0,0,1,43-43h780a43,43,0,0,1,43,43Z" transform="translate(-570.54 -225.29)"/><path class="cls-1" d="M2508.69,1147.42h-.12a43,43,0,0,1-36.54-20.53l-79.25-129.3H2118.7a129.15,129.15,0,0,1-129-129V354.29a129.15,129.15,0,0,1,129-129h780a129.14,129.14,0,0,1,129,129v514.3a129.14,129.14,0,0,1-129,129H2625.62l-80.4,129.51A43,43,0,0,1,2508.69,1147.42Zm-390-836.13a43,43,0,0,0-43,43v514.3a43,43,0,0,0,43,43h298.15a43,43,0,0,1,36.67,20.53l55.4,90.39,56.25-90.6a43,43,0,0,1,36.54-20.32h297a43,43,0,0,0,43-43V354.29a43,43,0,0,0-43-43Z" transform="translate(-570.54 -225.29)"/><path class="cls-1" d="M3673.83,1576.73a43,43,0,0,1-24.12-38.63V1415.65H3537.85a129.15,129.15,0,0,1-129-129V772.35a129.15,129.15,0,0,1,129-129h780a129.15,129.15,0,0,1,129,129v514.3a129.15,129.15,0,0,1-129,129H3920.07l-201,156.38a43,43,0,0,1-45.29,4.7Zm-136-847.38a43,43,0,0,0-43,43v514.3a43,43,0,0,0,43,43h154.86a43,43,0,0,1,43,43v77.5l143.19-111.43a43,43,0,0,1,26.41-9.07h412.53a43,43,0,0,0,43-43V772.35a43,43,0,0,0-43-43Z" transform="translate(-570.54 -225.29)"/><circle class="cls-1" cx="311.6" cy="804.21" r="43"/><circle class="cls-1" cx="726.4" cy="804.21" r="43"/><circle class="cls-1" cx="519" cy="804.21" r="43"/><circle class="cls-1" cx="1730.75" cy="386.15" r="43"/><circle class="cls-1" cx="2145.55" cy="386.15" r="43"/><circle class="cls-1" cx="1938.15" cy="386.15" r="43"/><circle class="cls-1" cx="3149.9" cy="804.21" r="43"/><circle class="cls-1" cx="3564.7" cy="804.21" r="43"/><circle class="cls-1" cx="3357.3" cy="804.21" r="43"/></g></svg>