<svg id="Layer_1" data-name="Layer 1" xmlns="http://www.w3.org/2000/svg" viewBox="0 0 1092.29 672.18"><defs><style>.cls-1{fill:#333;}</style></defs><path class="cls-1" d="M866.78,1035c-60.87,0-91.85,28.73-100.32,38.08v41.1H967.09v-41.12C958.61,1063.64,927.8,1035,866.78,1035Z" transform="translate(-600 -663.91)"/><path class="cls-1" d="M866.78,963a38.59,38.59,0,1,0-38.59-38.59A38.63,38.63,0,0,0,866.78,963Z" transform="translate(-600 -663.91)"/><path class="cls-1" d="M1618.65,663.91h-945A73.64,73.64,0,0,0,600,737.55v524.89a73.64,73.64,0,0,0,73.64,73.65h945a73.64,73.64,0,0,0,73.64-73.65V737.55A73.64,73.64,0,0,0,1618.65,663.91ZM866.78,860.1a64.31,64.31,0,1,1-64.31,64.3A64.38,64.38,0,0,1,866.78,860.1Zm126,279.8H740.74v-75.62l2.44-3.37c1.52-2.11,38.26-51.63,123.6-51.63s122.07,49.52,123.59,51.63l2.44,3.37Zm328.1-24H1122.62v-33.61h198.29Zm110.91-99.15h-309.2V983.2h309.2Zm110.91-99.14H1122.62V884.05h420.11Z" transform="translate(-600 -663.91)"/></svg>