<svg xmlns="http://www.w3.org/2000/svg" viewBox="0 0 610.15 610.15"><defs><style>.cls-1{fill:#e0ccbe;}</style></defs><g id="Layer_2" data-name="Layer 2"><path class="cls-1" d="M326.72,1494.91s12.8,28.64,72.06,77c37,30.14,85.93,57.24,125.05,87.06l.11.09a54.75,54.75,0,0,1,16.61,21,176.75,176.75,0,0,1,13.1,43.1,566.15,566.15,0,0,1,8.1,103.88q8.67-.88,17.2-2.25a585.33,585.33,0,0,0-8.36-104.5,193.29,193.29,0,0,0-96.38-136.4c-36.06-20.13-71.4-47.2-93.78-82.66-48.12-76.26-37.56-162.94-16.05-233.56-83.59,54.41-138.87,148.68-138.87,255.86a304.24,304.24,0,0,0,97.11,223.21C282.21,1656.53,313.81,1548.68,326.72,1494.91Z" transform="translate(-225.51 -1218.46)"/><path class="cls-1" d="M372.8,1644.6c57.57,44.66,111.91,108.76,152.37,184,1.8,0,3.6,0,5.42,0q11.19,0,22.2-.8C512.38,1760.4,454.77,1698.16,372.8,1644.6Z" transform="translate(-225.51 -1218.46)"/><path class="cls-1" d="M530.59,1218.46a304.94,304.94,0,0,0-87.51,12.74c7.31,9.51,15.92,20,26.09,31.51,35.14,39.71,84,78.25,121.59,118,75,79.29,34.23,203,19,241.2-29.45-99.18-85.21-195.37-182.14-284.07C531.75,1449.92,610.85,1636,596.13,1821.55c137-30,239.53-152,239.53-298C835.66,1355.05,699.07,1218.46,530.59,1218.46Zm116.65,193.91c13.18-17,30.83-34,43-51,19.61-27.15,21.78-40.71,21.78-40.71,13.77,25.39,47.49,80.33,22.27,130.71-15.49,31-54.74,49.69-73.06,57,6.5-45.69,24.72-88.27,48.23-119.2-34.54,38.52-52.64,78.38-60.32,118.39C641.73,1493.25,621,1446.36,647.24,1412.37Zm1.26,287c26.4-62,68.16-115.18,113-150-63.23,41.32-103.8,90.72-129.72,144.25-5.1-23.08-16.72-97,33.17-135.08,25-19.06,56.32-36.39,79.94-55.66,37.89-30.9,46.08-49.21,46.08-49.21,9.84,41,36.69,131.21-17.88,192.78C739.54,1684.37,677.1,1696,648.5,1699.41Z" transform="translate(-225.51 -1218.46)"/></g></svg>