<svg xmlns="http://www.w3.org/2000/svg" viewBox="0 0 1616.87 1616.87"><defs><style>.cls-1{fill:#3c3633;}</style></defs><g id="Layer_2" data-name="Layer 2"><path class="cls-1" d="M481.22,924.15s33.93,75.9,191,204c97.93,79.86,227.7,151.69,331.37,230.7l.3.23a145.13,145.13,0,0,1,44,55.73A467.91,467.91,0,0,1,1082.6,1529c15.78,93.13,22.92,185.09,21.46,275.28q23-2.34,45.56-6a1550.52,1550.52,0,0,0-22.14-276.93A512.23,512.23,0,0,0,872.09,1160c-95.58-53.34-189.22-125.09-248.52-219.05C496.05,738.82,524,509.1,581,322c-221.53,144.2-368,394-368,678,0,233.51,99,443.9,257.33,591.48C363.29,1352.43,447,1066.64,481.22,924.15Z" transform="translate(-213.03 -191.56)"/><path class="cls-1" d="M603.34,1320.81C755.89,1439.16,899.9,1609,1007.11,1808.3c4.78.08,9.56.14,14.36.14q29.67,0,58.83-2.13C973.23,1627.68,820.55,1462.75,603.34,1320.81Z" transform="translate(-213.03 -191.56)"/><path class="cls-1" d="M1021.47,191.56a808.27,808.27,0,0,0-231.88,33.76c19.35,25.22,42.19,53.07,69.13,83.51,93.12,105.23,222.64,207.36,322.21,312.7,198.61,210.11,90.71,537.94,50.3,639.16-78-262.82-225.8-517.73-482.68-752.76,276,297,485.62,790.18,446.62,1281.8,363-79.48,634.73-402.87,634.73-789.73C1829.9,553.51,1468,191.56,1021.47,191.56ZM1330.6,705.43c34.92-45.14,81.69-90.2,114.09-135,51.94-71.93,57.71-107.88,57.71-107.88,36.48,67.29,125.83,212.86,59,346.39-41.05,82-145.07,131.67-193.61,151.08,17.23-121.06,65.51-233.91,127.8-315.87-91.51,102.09-139.48,207.71-159.84,313.73C1316,919.74,1261,795.49,1330.6,705.43Zm3.34,760.64c69.94-164.26,180.61-305.24,299.37-397.37-167.57,109.5-275.07,240.4-343.75,382.27-13.53-61.18-44.31-257.2,87.89-358,66.27-50.51,149.24-96.43,211.85-147.49,100.4-81.88,122.08-130.4,122.08-130.4,26.09,108.67,97.24,347.7-47.36,510.85C1575.18,1426.2,1409.72,1457,1333.94,1466.07Z" transform="translate(-213.03 -191.56)"/></g></svg>