<svg xmlns="http://www.w3.org/2000/svg" xmlns:xlink="http://www.w3.org/1999/xlink" viewBox="0 0 730.77 730.77"><defs><style>.cls-1{fill:url(#New_Gradient_Swatch_copy_18);}.cls-2{fill:#8bc53f;}.cls-3{fill:none;stroke:#8bc53f;stroke-miterlimit:10;}</style><linearGradient id="New_Gradient_Swatch_copy_18" x1="301.48" y1="-827.45" x2="388.22" y2="791.7" gradientUnits="userSpaceOnUse"><stop offset="0" stop-color="#8cc342"/><stop offset="1" stop-color="#55833d"/></linearGradient></defs><g id="Layer_2" data-name="Layer 2"><circle class="cls-1" cx="365.39" cy="365.39" r="365.39"/><path class="cls-2" d="M715.08,1333s14.48,32.39,81.48,87c41.79,34.07,97.16,64.72,141.38,98.43l.13.1a61.77,61.77,0,0,1,18.78,23.78,199.59,199.59,0,0,1,14.82,48.73,641.07,641.07,0,0,1,9.16,117.45q9.79-1,19.44-2.54a662.18,662.18,0,0,0-9.45-118.16,218.55,218.55,0,0,0-109-154.21c-40.78-22.76-80.73-53.37-106-93.46-54.41-86.22-42.47-184.23-18.15-264.07-94.52,61.52-157,168.1-157,289.29a344,344,0,0,0,109.79,252.36C664.77,1515.76,700.49,1393.82,715.08,1333Z" transform="translate(-580.2 -1000)"/><path class="cls-2" d="M767.19,1502.26c65.09,50.5,126.53,123,172.27,208,2,0,4.08.06,6.13.06q12.66,0,25.1-.91C925,1633.19,859.86,1562.82,767.19,1502.26Z" transform="translate(-580.2 -1000)"/><path class="cls-2" d="M945.59,1020.46a344.88,344.88,0,0,0-98.94,14.4c8.26,10.76,18,22.64,29.5,35.63,39.73,44.9,95,88.47,137.47,133.42,84.74,89.64,38.71,229.52,21.46,272.7-33.29-112.13-96.34-220.89-205.94-321.17,117.77,126.72,207.2,337.14,190.56,546.89,154.88-33.91,270.81-171.89,270.81-336.94C1290.51,1174.89,1136.08,1020.46,945.59,1020.46Zm131.89,219.25c14.9-19.27,34.86-38.49,48.68-57.63,22.16-30.69,24.62-46,24.62-46,15.57,28.71,53.69,90.81,25.18,147.79-17.51,35-61.9,56.18-82.61,64.46,7.35-51.65,28-99.8,54.53-134.77-39,43.55-59.51,88.62-68.2,133.85C1071.25,1331.14,1047.77,1278.13,1077.48,1239.71Zm1.43,324.53c29.84-70.08,77.06-130.23,127.73-169.54-71.5,46.72-117.37,102.57-146.67,163.1-5.77-26.1-18.9-109.74,37.5-152.73,28.28-21.56,63.67-41.15,90.39-62.93,42.83-34.94,52.09-55.64,52.09-55.64,11.13,46.37,41.48,148.35-20.21,218C1181.83,1547.23,1111.24,1560.37,1078.91,1564.24Z" transform="translate(-580.2 -1000)"/><circle class="cls-3" cx="365.39" cy="365.39" r="356.32"/></g></svg>