<svg xmlns="http://www.w3.org/2000/svg" viewBox="0 0 2458.78 2461.68"><defs><style>.cls-1{fill:#061420;}.cls-1,.cls-2,.cls-3{fill-rule:evenodd;}.cls-2{fill:#e9c301;}.cls-3{fill:#fff;}</style></defs><g id="Master_Layer_2" data-name="Master Layer 2"><path class="cls-1" d="M1936.49,946h0c544.77,0,990.49,445.72,990.49,990.5h0c0,544.77-445.72,990.49-990.49,990.49h0C1391.72,2927,946,2481.27,946,1936.5h0C946,1391.72,1391.72,946,1936.49,946Z" transform="translate(-707.11 -705.66)"/></g><g id="Layer_1" data-name="Layer 1"><path class="cls-2" d="M1784.69,3088.45c-97,79.07-248.77,38-293.37-78.62-114.58,51.34-250.19-27.83-263-151.9-124.42,20.33-234.44-91.66-214.74-214.72-125.06-12.92-202.83-149-151.85-263-116.9-44.73-157.51-196.14-78.6-293.34-101.35-73.43-101.38-230.24,0-303.66-78.91-97.14-38.34-248.63,78.57-293.34-50.94-114,26.76-250.13,151.86-263-19.62-123.09,90.26-235,214.74-214.7,12.86-124,148.46-203.26,263-151.87,44.59-116.61,196.28-157.69,293.36-78.63,73.44-101.33,230.16-101.3,303.6,0,97.1-79.06,248.78-38,293.38,78.62,114.57-51.37,250.1,27.86,263,151.85,124.44-20.25,234.42,91.62,214.74,214.71,125.09,12.93,202.84,149,151.86,263,116.93,44.7,157.49,196.15,78.62,293.34,101.37,73.46,101.35,230.21,0,303.7,78.91,97.12,38.31,248.68-78.62,293.3,51,114.1-26.75,250.12-151.86,263,19.7,123.26-90.24,234.74-214.76,214.72-12.84,124-148.41,203.26-263,151.88-44.6,116.56-196.32,157.75-293.38,78.62-75.66,104.27-226.73,106-303.58,0ZM1809.35,2109V1955.88h200.54a19.37,19.37,0,0,0,0-38.74H1809.35V1764h200.54a19.37,19.37,0,0,0,0-38.74H1790a19.35,19.35,0,0,0-19.36,19.37V2128.4a19.34,19.34,0,0,0,19.36,19.36h219.89a19.36,19.36,0,0,0,0-38.72Zm347.83,38.72a19.38,19.38,0,0,0,18-12.13l137.07-339.35,137.07,339.35a19.35,19.35,0,0,0,37.31-7.23V1744.61a19.37,19.37,0,1,0-38.73,0v284.11l-117.7-291.38a19.38,19.38,0,0,0-35.93,0l-117.71,291.42V1744.61a19.36,19.36,0,1,0-38.72,0v383.81a19.27,19.27,0,0,0,15.58,19,20.85,20.85,0,0,0,3.78.35Zm-514.44,0a19.6,19.6,0,0,0,5.27-.73,19.39,19.39,0,0,0,14.1-18.63V1744.61a19.37,19.37,0,1,0-38.73,0v315.57l-201.08-325.73a19.36,19.36,0,0,0-35.84,10.16V2128.4a19.36,19.36,0,0,0,38.72,0V1812.83l201.08,325.73a19.34,19.34,0,0,0,16.49,9.2ZM2191.14,2387a19.37,19.37,0,1,0,0-38.73H1681.87a19.37,19.37,0,0,0,0,38.73Zm0-862.2a19.37,19.37,0,1,0,0-38.73H1681.87a19.37,19.37,0,0,0,0,38.73ZM1936.5,2646.64c391.59,0,710.14-318.55,710.14-710.14s-318.55-710.17-710.14-710.17-710.17,318.59-710.17,710.17,318.59,710.14,710.17,710.14Zm0-1381.57c-370.23,0-671.41,301.2-671.41,671.43s301.19,671.43,671.41,671.43,671.43-301.2,671.43-671.43-301.2-671.43-671.43-671.43Zm0,1583.27c502.81,0,911.84-409,911.84-911.84s-409-911.86-911.84-911.86-911.86,409.08-911.86,911.86,409.08,911.84,911.86,911.84Zm0-1785c-481.44,0-873.12,391.68-873.12,873.12s391.68,873.13,873.12,873.13S2809.63,2418,2809.63,1936.5,2418,1063.38,1936.5,1063.38Z" transform="translate(-707.11 -705.66)"/><path class="cls-3" d="M2809.63,1936.5c0-481.44-391.67-873.12-873.13-873.12s-873.12,391.68-873.12,873.12,391.68,873.13,873.12,873.13S2809.63,2418,2809.63,1936.5ZM1936.5,1226.33c391.59,0,710.14,318.6,710.14,710.17s-318.55,710.14-710.14,710.14-710.17-318.55-710.17-710.14S1544.92,1226.33,1936.5,1226.33Z" transform="translate(-707.11 -705.66)"/></g></svg>