<svg id="Layer_1" data-name="Layer 1" xmlns="http://www.w3.org/2000/svg" viewBox="0 0 3873 3873"><defs><style>.cls-1{fill:#3c3633;}.cls-2{fill:#fffffe;fill-rule:evenodd;}</style></defs><rect class="cls-1" width="3873" height="3873" rx="1936.5"/><g id="Layer_1-2" data-name="Layer_1"><g id="_405540848" data-name=" 405540848"><path id="_405542888" data-name=" 405542888" class="cls-2" d="M873.39,2763.78V802.67c0-77,62.61-139.61,139.61-139.61h234.19V2620.33h-106c-111.56,0-210,57-267.78,143.45Zm427.93-143.45V663.06h382.47v553a27,27,0,0,0,45.91,19.39l255.81-251,255.82,251a27,27,0,0,0,45.91-19.3V663.06H2899a27.14,27.14,0,0,1,27.06,27.07l-.17,709.56h-556a81.15,81.15,0,0,0-81.1,81.1v805.4a81.15,81.15,0,0,0,81.1,81.1H2523l-9.2,87.09a81,81,0,0,0,128.27,74l221.6-161.22h62.79c-.53,17.15-.8,27.33-.8,28.41l-.09,229.28a80.1,80.1,0,0,0-27.07-4.64l-1597.13.08ZM1737.83,663.06h495.46v488.58L2004.45,927.18a27.13,27.13,0,0,0-37.87,0l-228.75,224.46V663.06Z"/><path id="_405538784" data-name=" 405538784" class="cls-2" d="M2898.63,3209.94H1141.17c-147.65,0-267.78-120.14-267.78-267.78s120.13-267.79,267.78-267.79H2898.54a27.07,27.07,0,1,1,0,54.13c-70.65,0-130.31,97.9-130.31,213.74S2827.89,3156,2898.54,3156h.18a27,27,0,1,1-.09,54Zm-425-240.81H1325.35a27.07,27.07,0,1,1,0-54.13h1148.3a27.07,27.07,0,0,1,0,54.13Z"/><path id="_405542480" data-name=" 405542480" class="cls-2" d="M2905.33,2083.43a26.23,26.23,0,0,1-13.49-3.66,27,27,0,0,1-13.48-24.39l7.14-192.12,197,113.79-162.83,102.27a27.63,27.63,0,0,1-14.38,4.11Zm-2.14-272.34,225.35-390.32,84.41,48.76L2987.6,1859.86l-84.41-48.77Zm356.65-314.58,84.41,48.77L3118.9,1935.61l-84.41-48.77Zm-104.23-122.64,37.24-64.49a42.84,42.84,0,0,1,37.16-21,46.74,46.74,0,0,1,23.31,6.26L3391,1374.14a46,46,0,0,1,21.52,27.87,41.28,41.28,0,0,1-4.11,31.89l-37.24,64.48-215.53-124.51Z"/><path id="_405541640" data-name=" 405541640" class="cls-2" d="M2594.41,2489.93a26.21,26.21,0,0,1-13.49-3.66,27.11,27.11,0,0,1-13.4-26.26l15.54-146.85H2370a27,27,0,0,1-27.07-27.06V1480.7a27,27,0,0,1,27.07-27.06h677.13L2842.9,1807.43a80.46,80.46,0,0,0-10.81,37.52l-6.88,184.35H2538.14a27.07,27.07,0,1,0,0,54.13H2829a81,81,0,0,0,119.51,41.62l66.37-41.62h257.78a27.07,27.07,0,0,0,0-54.13H3100.85l24.21-15.18a81.63,81.63,0,0,0,27.06-28.14l303.16-525.11c.44-.71.8-1.43,1.16-2.14a27,27,0,0,1,11.25,21.88v805.58a27,27,0,0,1-27.06,27.06H2846l-235.8,171.59a27.36,27.36,0,0,1-15.81,5.09Z"/></g></g></svg>