<svg id="iconos" xmlns="http://www.w3.org/2000/svg" viewBox="0 0 1776.87 1762.16"><defs><style>.cls-1{fill:#fff;stroke:#3c3733;stroke-linecap:round;stroke-linejoin:round;stroke-width:79.82px;}</style></defs><polygon class="cls-1" points="1248.37 39.91 1248.37 1138.43 669.77 1722.25 39.91 1722.25 39.91 39.91 1248.37 39.91"/><polygon class="cls-1" points="1248.37 1138.43 669.77 1722.25 669.77 1138.43 1248.37 1138.43"/><line class="cls-1" x1="248.8" y1="288.77" x2="588.89" y2="288.77"/><line class="cls-1" x1="248.8" y1="537.62" x2="980.84" y2="537.62"/><line class="cls-1" x1="248.8" y1="767.82" x2="959.07" y2="767.82"/><line class="cls-1" x1="248.8" y1="1023.66" x2="539.07" y2="1023.66"/><path class="cls-1" d="M1760,243l-680.4,680.4a105.47,105.47,0,1,0,149.16,149.15l680.4-680.4Z" transform="translate(-172.22 -179.58)"/><polygon class="cls-1" points="898.19 752.98 1047.35 902.13 776.66 1023.66 898.19 752.98"/><line class="cls-1" x1="878.39" y1="1138.41" x2="669.78" y2="1210.07"/><polyline class="cls-1" points="1196.65 1190.63 1196.6 1190.63 669.78 1367.74"/><line class="cls-1" x1="968.91" y1="1420.41" x2="669.78" y2="1525.41"/><polyline class="cls-1" points="711.13 1680.56 711.08 1680.56 669.78 1694.75"/><line class="cls-1" x1="1335.22" y1="315.96" x2="1484.38" y2="465.12"/></svg>