<svg id="Layer_1" data-name="Layer 1" xmlns="http://www.w3.org/2000/svg" viewBox="0 0 3721.26 3721.26"><defs><style>.cls-1,.cls-2{fill:#e0ccbe;}.cls-1{fill-rule:evenodd;}</style></defs><g id="_577739992" data-name=" 577739992"><path id="_577740280" data-name=" 577740280" class="cls-1" d="M2941.81,1757H2211.28c-53-222.66-253.64-388.86-492.23-388.86H1713a65.25,65.25,0,0,0-65.15,65.15v322.84c-407.68-.87-730.53-3.18-733.71-7.82a21.52,21.52,0,0,1,4.34-29.82c3.48-2.61,335.59-250.17,500.92-418.68,75.28-77,173.73-191.68,289.84-191.68,70.36,0,143,37.93,227.58,119,61.38-58.78,139.56-119,228.74-119,115.24.57,213.69,115.24,288.68,191.68,165.33,168.8,497.44,416.36,500.63,418.68a21,21,0,0,1,4.34,29.82,22.19,22.19,0,0,1-17.37,8.69Zm-579.68-346.3a21.43,21.43,0,0,1-15.34-6.37c-4.92-4.92-10.43-10.71-16.51-17.08-37.35-39.09-115.24-120.16-157.8-128.85a21.41,21.41,0,0,1,8.4-42c51.54,10.42,117.26,75.57,180.39,141.3,6.08,6.37,11.58,11.87,16.21,16.79a21.28,21.28,0,0,1-15.35,36.19Z" transform="translate(-75.87 -75.87)"/><path id="_577740088" data-name=" 577740088" class="cls-1" d="M2253.84,2289.46c-9.26,0-18.82-.29-28.66-.58V1874.25a476.08,476.08,0,0,0-5.5-73.55h595.6c-80.21,48.65-121.9,128.27-165.34,210.79-71.51,137-145.93,278-396.1,278ZM1223.06,2011.2c-44.3-84.25-86.58-165-170-213.39,41.12.29,81.94.58,123.06.58q235.83,1.29,472,1.44v489.34c-215.71,11.29-315-68.62-425-278Z" transform="translate(-75.87 -75.87)"/><path id="_577740376" data-name=" 577740376" class="cls-1" d="M2160,2765.47H1713a21.38,21.38,0,0,1-21.43-21.42V1969.22h24.62c136.66,0,248.14-111.19,248.14-248.14V1482.49c130.29,81.94,217.16,227,217.16,392v869.8a21.51,21.51,0,0,1-21.43,21.13Zm-468.49-839.1v-493.1a21.39,21.39,0,0,1,21.43-21.43h6.08a460.75,460.75,0,0,1,202.39,46.62v262.62c0,113.21-92.07,205.29-205.29,205.29Z" transform="translate(-75.87 -75.87)"/><path id="_577740640" data-name=" 577740640" class="cls-2" d="M1936.5,75.87c513.95,0,979,208.19,1315.7,544.93s544.93,802,544.93,1315.7-208.19,979-544.93,1315.7-802,544.93-1315.7,544.93-979-208.19-1315.7-544.93-544.93-802-544.93-1315.7,208.19-979,544.93-1315.7,802-544.93,1315.7-544.93ZM3170.26,703c-315.61-315.61-752-511-1233.47-511C1455,192,1018.93,387.13,703.32,703,387.71,1018.64,192.27,1455,192.27,1936.5c0,481.81,195.15,917.86,511.05,1233.47C1018.93,3485.58,1455.27,3681,1936.79,3681c481.81,0,917.86-195.15,1233.47-511.05,315.61-315.61,511-751.95,511-1233.47s-195.44-917.86-511-1233.47Z" transform="translate(-75.87 -75.87)"/></g></svg>