<svg id="Layer_1" data-name="Layer 1" xmlns="http://www.w3.org/2000/svg" viewBox="0 0 2662.63 2935.8"><defs><style>.cls-1,.cls-2{fill:#3c3633;}.cls-2{fill-rule:evenodd;}</style></defs><g id="Layer_1-2" data-name="Layer_1"><path class="cls-1" d="M1887.2,1723.4a68,68,0,0,0-106.2,84.8l273.1,341.4c-4.7,4.8,56.7,52.1,102.2,5L3247.8,1063.1a68.24,68.24,0,1,0-96.5-96.5L2112.6,2005.2l-225.4-281.8Z" transform="translate(-605.2 -468.6)"/><path class="cls-2" d="M2789.9,622.2v620.1l-672.3,672.3-183.2-229c-44.2-55.3-125.2-64.3-180.5-20.1s-64.4,125.3-20.1,180.6l267,333.7a74.61,74.61,0,0,0,7,10.9c8.4,10.6,6.7,8.6,17.5,16.7a141.53,141.53,0,0,0,42.6,21.6c47.3,15,96,3.7,131.3-31.6L2790,1606.6V2955l-20.3,20.2-410.4,409.2-48,20H758.8a154,154,0,0,1-153.6-153.6V622.2A154,154,0,0,1,758.8,468.6H2636.3a154,154,0,0,1,153.6,153.6ZM878.3,2797.7H2516.9v121H878.3Zm0-409.7H2516.9v121H878.3Zm887.5-1365.5h751v121h-751Zm-396,127.1A212.21,212.21,0,1,1,1432,999.5,211.7,211.7,0,0,1,1369.8,1149.6ZM973.8,1662h-81V1496.3a265.22,265.22,0,0,1,188.4-252l10.7-3.2,31.5-9.5,25,21.5,8.5,7.3a104.61,104.61,0,0,0,14.8,10.6,97.55,97.55,0,0,0,16,7.8,89.81,89.81,0,0,0,16.7,4.3,106.1,106.1,0,0,0,18.1,1.5,103.75,103.75,0,0,0,17.9-1.5,95.77,95.77,0,0,0,16.9-4.6,106.86,106.86,0,0,0,15.9-7.4,94.67,94.67,0,0,0,14.4-10.4l9-7.7,26.6-22.8,32.9,11.9,11.2,4c28.3,10.2,53.1,22.8,74.4,38a239.19,239.19,0,0,1,56.8,56.3c15.2,21.3,26.6,45,34.6,71.4,7.6,25,11.9,51.9,13.2,80.9l.2,2.6v.9h-.2l.1,84.6v81h-80.7l-491.9.2Z" transform="translate(-605.2 -468.6)"/></g></svg>